<?xml version="1.0" standalone="no"?>
<!DOCTYPE svg PUBLIC "-//W3C//DTD SVG 20010904//EN"
 "http://www.w3.org/TR/2001/REC-SVG-20010904/DTD/svg10.dtd">
<svg version="1.0" xmlns="http://www.w3.org/2000/svg"
 width="804.000000pt" height="804.000000pt" viewBox="0 0 804.000000 804.000000"
 preserveAspectRatio="xMidYMid meet">

<g transform="translate(0.000000,804.000000) scale(0.100000,-0.100000)"
fill="#000000" stroke="none">
<path d="M8030 4025 l0 -4015 -372 0 -371 0 -43 25 c-24 14 -48 34 -54 45 -6
11 -16 20 -23 20 -7 -1 9 -20 36 -45 l47 -43 -155 -1 -154 -2 10 31 c6 16 16
30 22 31 7 0 3 4 -8 8 -24 10 -35 -3 -35 -41 l0 -28 -3467 -3 -3468 -2 4023
-3 4022 -2 0 4020 c0 2211 -2 4020 -5 4020 -3 0 -5 -1807 -5 -4015z"/>
<path d="M3826 7374 c-8 -21 -8 -34 2 -34 4 0 9 11 10 25 2 28 -3 32 -12 9z"/>
<path d="M3846 7294 c-10 -26 -5 -117 8 -154 13 -34 13 -34 19 45 7 79 2 125
-13 125 -4 0 -11 -7 -14 -16z"/>
<path d="M3946 7294 c-9 -23 -6 -136 4 -159 6 -13 9 14 9 78 1 97 -1 111 -13
81z"/>
<path d="M3759 7203 c2 -66 6 -89 11 -72 8 29 1 169 -9 169 -3 0 -4 -44 -2
-97z"/>
<path d="M4031 7213 c0 -51 3 -93 7 -93 4 0 6 33 4 73 -5 113 -9 121 -11 20z"/>
<path d="M3667 7215 c3 -44 7 -82 9 -84 7 -8 2 104 -6 134 -5 18 -6 -3 -3 -50z"/>
<path d="M3800 7279 c0 -5 5 -7 10 -4 6 3 10 8 10 11 0 2 -4 4 -10 4 -5 0 -10
-5 -10 -11z"/>
<path d="M3583 7190 c0 -41 2 -58 4 -37 2 20 2 54 0 75 -2 20 -4 3 -4 -38z"/>
<path d="M3800 7160 c0 -5 5 -10 10 -10 6 0 10 5 10 10 0 6 -4 10 -10 10 -5 0
-10 -4 -10 -10z"/>
<path d="M3985 7030 c-3 -5 3 -10 14 -10 12 0 21 5 21 10 0 6 -6 10 -14 10 -8
0 -18 -4 -21 -10z"/>
<path d="M4012 6990 c0 -14 2 -19 5 -12 2 6 2 18 0 25 -3 6 -5 1 -5 -13z"/>
<path d="M3666 6990 c-32 -10 -46 -25 -46 -53 0 -15 6 -17 38 -13 l37 5 -37
-11 c-21 -6 -38 -15 -38 -19 0 -14 67 -21 89 -9 20 10 88 7 99 -5 3 -3 11 0
19 6 10 9 18 8 31 -4 22 -19 72 -11 72 12 0 11 3 12 8 4 5 -8 21 -10 45 -6 43
7 50 23 10 23 -33 1 -98 28 -70 29 10 1 15 6 12 11 -3 6 -32 10 -63 10 -31 0
-79 7 -106 15 -55 17 -59 17 -100 5z"/>
<path d="M3955 6960 c-3 -5 -1 -10 4 -10 6 0 11 5 11 10 0 6 -2 10 -4 10 -3 0
-8 -4 -11 -10z"/>
<path d="M3975 6815 l-30 -14 35 0 c19 0 58 6 85 13 l50 14 -55 0 c-30 0 -68
-6 -85 -13z"/>
<path d="M3650 6800 c0 -6 50 -10 133 -9 100 1 121 3 87 10 -66 11 -220 11
-220 -1z"/>
<path d="M4570 6788 c0 -4 9 -8 20 -8 11 0 20 4 20 9 0 6 -9 9 -20 8 -11 -1
-20 -5 -20 -9z"/>
<path d="M3187 6743 c-5 -9 11 -134 18 -141 3 -3 5 27 5 66 0 63 -10 96 -23
75z"/>
<path d="M3758 6735 c-13 -14 -85 -25 -211 -34 -71 -5 -131 -12 -135 -15 -3
-3 0 -17 7 -30 8 -13 11 -29 7 -34 -8 -14 18 -22 72 -22 26 0 65 -5 87 -10
109 -27 351 -21 573 12 107 16 80 21 -39 8 -145 -17 -456 -14 -483 4 -12 7
-37 17 -56 21 -49 10 -54 15 -33 31 27 20 127 18 149 -3 14 -15 34 -18 98 -17
68 1 88 6 126 27 l44 26 -38 16 c-41 17 -157 31 -168 20z"/>
<path d="M4550 6684 c0 -21 -4 -33 -10 -29 -5 3 -10 1 -10 -4 0 -6 3 -11 8
-11 18 1 32 18 38 48 5 25 3 32 -10 32 -12 0 -16 -9 -16 -36z"/>
<path d="M4590 6682 c0 -7 85 -62 96 -62 3 0 29 -18 59 -40 30 -22 58 -40 63
-40 9 0 46 -45 87 -105 7 -11 16 -17 20 -14 6 7 -52 84 -106 139 -54 55 -101
87 -146 99 -23 7 -45 16 -48 21 -7 12 -25 13 -25 2z"/>
<path d="M3065 6630 c-3 -6 1 -7 9 -4 18 7 21 14 7 14 -6 0 -13 -4 -16 -10z"/>
<path d="M3115 6616 c-78 -51 -129 -81 -139 -81 -23 0 -115 -119 -102 -132 3
-3 30 22 61 56 31 33 89 82 128 108 39 27 75 51 81 55 20 14 -8 7 -29 -6z"/>
<path d="M4440 6590 c0 -5 5 -10 10 -10 6 0 10 5 10 10 0 6 -4 10 -10 10 -5 0
-10 -4 -10 -10z"/>
<path d="M4395 6580 c-3 -5 -2 -10 4 -10 5 0 13 5 16 10 3 6 2 10 -4 10 -5 0
-13 -4 -16 -10z"/>
<path d="M4335 6560 c-3 -6 1 -7 9 -4 18 7 21 14 7 14 -6 0 -13 -4 -16 -10z"/>
<path d="M4775 6503 c3 -13 2 -23 -3 -23 -6 0 -6 -14 1 -36 10 -31 9 -38 -7
-50 -13 -9 -17 -22 -14 -44 3 -17 1 -33 -4 -36 -16 -10 -8 -24 13 -24 22 0 22
8 4 52 -5 12 -2 20 9 23 9 3 22 7 30 9 18 6 2 115 -21 136 -14 13 -14 13 -8
-7z"/>
<path d="M3623 6493 c9 -2 23 -2 30 0 6 3 -1 5 -18 5 -16 0 -22 -2 -12 -5z"/>
<path d="M3770 6475 c11 -14 25 -15 81 -10 45 5 69 3 74 -4 8 -14 25 -5 25 13
0 9 -27 13 -97 15 -88 2 -95 1 -83 -14z"/>
<path d="M3608 6473 c7 -3 16 -2 19 1 4 3 -2 6 -13 5 -11 0 -14 -3 -6 -6z"/>
<path d="M3695 6460 c3 -5 13 -10 21 -10 8 0 14 5 14 10 0 6 -9 10 -21 10 -11
0 -17 -4 -14 -10z"/>
<path d="M4751 6433 c11 -34 19 -42 19 -20 0 7 -7 22 -15 33 -13 17 -14 16 -4
-13z"/>
<path d="M3817 6444 c-12 -12 4 -24 34 -24 19 0 29 5 29 15 0 15 -50 22 -63 9z"/>
<path d="M3846 6395 c4 -10 0 -15 -15 -15 -12 0 -21 -4 -21 -10 0 -5 -7 -10
-16 -10 -8 0 -12 -4 -9 -10 8 -13 115 -13 135 0 16 11 8 12 -55 12 -22 0 -24
1 -8 5 19 4 21 7 10 24 -14 22 -29 26 -21 4z"/>
<path d="M3785 6310 c3 -5 24 -10 45 -10 21 0 42 5 45 10 4 6 -13 10 -45 10
-32 0 -49 -4 -45 -10z"/>
<path d="M4075 6310 c-3 -5 -1 -10 4 -10 6 0 11 5 11 10 0 6 -2 10 -4 10 -3 0
-8 -4 -11 -10z"/>
<path d="M4860 6273 c0 -28 5 -55 10 -58 11 -7 13 4 10 50 -4 57 -19 63 -20 8z"/>
<path d="M5030 6291 c0 -5 12 -17 28 -26 l27 -18 -24 27 c-26 28 -31 31 -31
17z"/>
<path d="M3859 6279 c-8 -5 -9 -9 -4 -9 6 0 20 -3 33 -6 12 -4 22 -2 22 4 0
14 -35 21 -51 11z"/>
<path d="M3803 6273 c9 -2 23 -2 30 0 6 3 -1 5 -18 5 -16 0 -22 -2 -12 -5z"/>
<path d="M4720 6251 c0 -6 4 -13 10 -16 6 -3 7 1 4 9 -7 18 -14 21 -14 7z"/>
<path d="M3817 6244 c-11 -12 3 -24 28 -24 13 0 26 4 29 9 10 15 -43 29 -57
15z"/>
<path d="M4920 6224 c0 -14 4 -23 10 -19 6 3 10 15 10 26 0 10 -4 19 -10 19
-5 0 -10 -12 -10 -26z"/>
<path d="M3775 6230 c-3 -5 -2 -10 4 -10 5 0 13 5 16 10 3 6 2 10 -4 10 -5 0
-13 -4 -16 -10z"/>
<path d="M4940 6176 c0 -14 5 -26 10 -26 6 0 10 7 10 15 0 8 0 18 1 22 0 4 -4
9 -10 11 -6 2 -11 -8 -11 -22z"/>
<path d="M3818 6161 l-27 -29 24 -6 c27 -7 103 3 110 14 2 4 -19 6 -48 4 -44
-3 -48 -2 -27 7 15 7 20 13 12 16 -6 3 -10 9 -6 14 12 20 -12 7 -38 -20z"/>
<path d="M4853 6183 c4 -6 26 -26 49 -45 23 -18 39 -28 35 -21 -4 6 -26 26
-49 45 -23 18 -39 28 -35 21z"/>
<path d="M3823 6103 c-18 -2 -33 -8 -33 -13 0 -14 70 -24 82 -12 10 10 3 33
-10 30 -4 0 -22 -3 -39 -5z"/>
<path d="M4902 6105 c11 -12 -11 -35 -33 -35 -11 0 -19 -4 -19 -9 0 -11 101
-101 114 -101 12 0 7 5 -52 54 -39 32 -41 36 -24 45 14 8 26 5 50 -12 18 -12
30 -27 27 -34 -2 -7 2 -10 9 -7 7 3 33 -12 57 -32 24 -20 67 -54 94 -75 28
-21 73 -55 100 -76 28 -22 84 -65 125 -96 41 -31 80 -61 86 -66 7 -5 20 -1 35
11 13 11 18 17 11 13 -8 -4 -51 25 -110 72 -171 139 -355 279 -417 318 -33 21
-57 34 -53 30z"/>
<path d="M3740 6086 c0 -2 7 -7 16 -10 8 -3 12 -2 9 4 -6 10 -25 14 -25 6z"/>
<path d="M4101 6074 c0 -11 3 -14 6 -6 3 7 2 16 -1 19 -3 4 -6 -2 -5 -13z"/>
<path d="M3755 6051 c19 -9 113 -15 104 -7 -2 2 -31 6 -64 10 -40 4 -53 3 -40
-3z"/>
<path d="M3910 6050 l-35 -7 32 -2 c17 0 35 4 38 9 3 6 5 9 3 9 -2 -1 -19 -5
-38 -9z"/>
<path d="M4699 6043 c-12 -14 -12 -16 0 -8 10 5 12 4 7 -4 -4 -6 -11 -9 -16
-6 -5 3 -37 -13 -72 -36 -57 -37 -60 -40 -28 -34 35 8 150 74 150 87 0 4 -7 4
-17 1 -11 -4 -14 -3 -9 5 11 18 0 14 -15 -5z"/>
<path d="M2996 6028 c12 -19 63 -61 98 -80 57 -31 50 -19 -11 21 -33 21 -63
46 -66 55 -4 9 -11 16 -17 16 -6 0 -8 -5 -4 -12z"/>
<path d="M3835 6023 c-33 -8 -49 -25 -33 -34 25 -16 138 -6 138 12 0 5 -7 5
-17 2 -11 -4 -14 -3 -9 5 5 8 0 12 -13 12 -10 0 -25 2 -33 4 -7 2 -22 1 -33
-1z"/>
<path d="M3758 5979 c8 -8 39 -14 85 -15 l72 -3 -72 9 c-39 4 -77 11 -85 15
-10 7 -11 5 0 -6z"/>
<path d="M4108 5983 c7 -3 16 -2 19 1 4 3 -2 6 -13 5 -11 0 -14 -3 -6 -6z"/>
<path d="M3714 5970 c-5 -5 -106 -25 -224 -45 -174 -29 -249 -48 -390 -94
-156 -52 -386 -148 -377 -158 2 -2 43 15 91 37 183 85 451 165 666 199 244 40
290 51 257 64 -8 3 -18 2 -23 -3z"/>
<path d="M3982 5968 c5 -14 57 -25 268 -57 209 -33 396 -83 590 -161 30 -12
51 -17 45 -12 -16 15 -180 77 -305 115 -102 31 -318 74 -466 92 -28 4 -64 13
-79 21 -34 17 -58 18 -53 2z"/>
<path d="M3538 5953 c12 -2 30 -2 40 0 9 3 -1 5 -23 4 -22 0 -30 -2 -17 -4z"/>
<path d="M4218 5953 c7 -3 16 -2 19 1 4 3 -2 6 -13 5 -11 0 -14 -3 -6 -6z"/>
<path d="M5361 5943 c8 -9 40 -36 73 -59 l58 -43 -26 -24 c-14 -13 -26 -31
-26 -38 1 -8 10 -3 24 13 23 26 39 30 63 15 6 -4 14 -3 18 2 3 6 -4 15 -16 22
-12 6 -55 38 -94 70 -70 58 -101 75 -74 42z"/>
<path d="M4616 5935 c-11 -9 -14 -15 -7 -15 7 0 19 7 27 15 20 19 5 19 -20 0z"/>
<path d="M5010 5915 c54 -45 65 -45 14 0 -21 19 -43 35 -47 35 -5 0 10 -16 33
-35z"/>
<path d="M3060 5920 c8 -5 20 -10 25 -10 6 0 3 5 -5 10 -8 5 -19 10 -25 10 -5
0 -3 -5 5 -10z"/>
<path d="M3668 5916 c-35 -19 -135 -39 -154 -32 -8 3 -35 1 -62 -4 -26 -6 -63
-13 -82 -16 -120 -17 -341 -84 -497 -150 -125 -52 -329 -158 -363 -188 -14
-12 -68 -54 -120 -93 -202 -152 -370 -321 -493 -497 -110 -158 -253 -400 -247
-421 1 -3 -10 -25 -23 -48 -32 -54 -112 -276 -142 -392 -67 -260 -90 -461 -81
-694 6 -148 31 -326 56 -406 5 -16 16 -59 24 -95 34 -146 107 -339 201 -528
30 -62 52 -118 49 -124 -4 -6 -2 -8 4 -5 10 7 77 -91 68 -100 -2 -2 -16 16
-31 41 -27 47 -45 64 -24 24 22 -43 51 -78 58 -73 5 2 34 -33 67 -78 69 -96
130 -166 159 -178 11 -5 34 -17 50 -27 17 -10 40 -18 53 -16 12 1 22 -2 22 -7
0 -5 6 -9 13 -9 6 -1 30 -9 52 -20 l40 -19 6 27 c4 21 -3 38 -34 77 -96 121
-247 325 -282 380 -46 72 -153 286 -188 375 -65 167 -124 403 -148 595 -16
134 -13 439 6 579 41 307 145 615 291 863 153 261 343 469 637 695 76 59 250
158 359 205 46 20 94 44 107 54 13 11 32 19 41 19 10 0 33 7 53 15 19 8 65 23
103 34 38 11 96 28 129 39 88 28 145 40 145 31 0 -17 29 -9 35 10 7 22 55 30
120 20 46 -7 37 -12 -16 -9 -38 1 -79 -28 -79 -58 0 -8 -6 -12 -15 -8 -25 9
-359 -80 -483 -130 -119 -47 -252 -110 -252 -119 0 -5 6 -3 115 49 171 81 445
165 580 179 l50 6 25 -51 c17 -34 35 -55 55 -64 37 -16 13 -18 -31 -2 -26 9
-48 8 -116 -7 -145 -31 -180 -44 -173 -63 4 -15 -10 -23 -82 -46 -141 -46
-379 -150 -352 -154 31 -5 89 13 176 54 83 40 187 77 291 104 77 21 273 57
307 58 11 0 86 3 168 7 99 4 147 3 147 -5 0 -6 -44 -10 -122 -10 -68 0 -168
-7 -223 -15 -120 -17 -286 -54 -300 -66 -14 -13 2 -11 80 10 208 57 551 73
795 37 391 -58 731 -214 1056 -484 35 -29 64 -49 64 -45 0 5 -28 31 -61 58
-33 28 -88 74 -122 103 -34 30 -72 58 -85 63 -12 5 -69 35 -125 67 -145 84
-200 110 -305 147 -51 18 -96 35 -99 39 -23 22 94 -13 212 -64 57 -24 139 -55
203 -75 42 -14 54 -8 29 14 -27 22 -369 191 -387 191 -10 0 -21 4 -24 9 -7 10
-92 34 -198 56 -85 17 -155 21 -238 11 -46 -5 -50 -4 -25 5 17 6 42 10 58 10
23 0 27 4 28 32 1 18 2 41 3 52 1 30 36 30 167 0 186 -41 371 -107 554 -197
44 -21 71 -31 60 -22 -29 24 -247 127 -334 158 -87 31 -286 83 -354 92 -26 4
-47 10 -47 14 0 4 -10 5 -22 3 -17 -3 -26 2 -33 19 -5 12 -21 28 -35 35 -16 8
-19 13 -9 13 26 0 78 -30 73 -43 -2 -7 6 -13 20 -13 53 -3 217 -36 326 -66
246 -67 562 -230 735 -379 28 -24 41 -33 31 -21 -11 12 -14 22 -8 22 14 0 285
-274 311 -313 9 -14 43 -58 77 -99 131 -157 267 -398 332 -588 111 -323 150
-565 138 -860 -16 -377 -89 -673 -243 -977 -124 -245 -235 -400 -378 -529 -41
-37 -75 -72 -75 -78 0 -6 -23 -34 -52 -63 -29 -29 -47 -53 -41 -53 7 0 15 4
18 10 3 5 11 10 17 10 6 0 -1 -9 -16 -21 -14 -11 -24 -25 -21 -30 4 -5 -1 -6
-9 -3 -27 11 -17 -5 13 -21 17 -8 32 -11 35 -6 4 5 0 12 -6 14 -7 3 1 4 18 3
17 -2 37 -6 43 -11 8 -4 28 5 51 24 21 17 45 31 52 31 37 0 243 240 354 411
61 93 232 434 261 519 46 133 96 351 113 495 7 55 14 103 16 107 9 15 5 343
-6 449 -22 219 -67 412 -134 571 -9 21 -16 41 -15 44 0 4 -5 10 -11 14 -7 4
-14 18 -15 31 -1 13 -3 29 -4 35 0 5 -16 36 -35 67 -19 31 -42 78 -52 104 -10
26 -28 64 -41 83 -13 19 -23 39 -23 45 0 6 -13 26 -29 45 -15 19 -31 45 -35
58 -4 12 -11 22 -16 22 -5 0 -16 12 -24 28 -16 30 -92 112 -99 106 -2 -3 -25
21 -51 53 -114 139 -327 337 -365 338 -9 1 -15 6 -14 12 1 6 -22 30 -51 52
-56 43 -78 53 -55 24 13 -16 12 -17 -4 -4 -9 8 -15 16 -12 19 8 9 -34 34 -45
27 -12 -8 -42 13 -35 24 2 4 -18 20 -45 36 -34 20 -46 32 -37 37 9 6 8 8 -4 8
-9 0 -24 9 -34 20 -10 11 -25 20 -33 20 -9 0 -34 8 -56 19 -23 10 -50 22 -61
25 -15 5 -16 9 -6 15 10 6 9 10 -4 14 -10 4 -14 3 -9 -4 4 -8 -1 -9 -17 -4
-48 15 -87 33 -94 45 -4 7 6 5 25 -5 17 -9 34 -14 37 -11 7 7 -51 35 -73 34
-10 0 -64 16 -119 36 -106 38 -227 72 -260 74 -12 0 -72 11 -135 23 -77 15
-159 23 -245 25 -71 1 -146 3 -165 5 -31 2 -30 3 15 9 46 7 45 8 -20 6 -38 -1
-79 -6 -90 -10 -16 -6 -17 -6 -5 3 22 16 0 13 -32 -3z m410 -130 c15 -15 22
-32 20 -47 l-3 -23 -35 30 c-70 59 -71 59 -235 38 -30 -4 -36 -2 -25 5 8 6 29
11 47 11 45 0 133 22 133 33 0 10 -61 -1 -74 -14 -6 -5 -31 -9 -56 -9 -42 0
-50 -4 -95 -50 -41 -42 -51 -47 -58 -34 -13 22 18 62 75 97 33 20 65 30 114
35 64 7 73 5 119 -21 28 -16 61 -39 73 -51z m-188 -160 c0 -44 3 -55 18 -59 9
-2 -37 -4 -103 -4 -66 1 -90 2 -54 4 l65 4 -4 29 c-2 16 -1 38 3 47 6 17 7 17
20 0 8 -11 11 -26 8 -35 -4 -15 -3 -15 6 -2 6 8 11 27 11 43 0 17 5 27 15 27
11 0 15 -13 15 -54z m1114 -32 c5 -14 4 -15 -9 -4 -17 14 -19 20 -6 20 5 0 12
-7 15 -16z m-981 -31 c-7 -2 -19 -2 -25 0 -7 3 -2 5 12 5 14 0 19 -2 13 -5z
m14 -49 c-3 -3 -12 -4 -19 -1 -8 3 -5 6 6 6 11 1 17 -2 13 -5z m140 -10 c-3
-3 -12 -4 -19 -1 -8 3 -5 6 6 6 11 1 17 -2 13 -5z m111 -10 c23 -4 45 -11 48
-16 4 -6 -13 -7 -42 -2 -55 8 -94 20 -94 30 0 3 10 4 23 1 12 -4 41 -9 65 -13z
m154 -40 c26 -8 50 -19 54 -26 4 -6 1 -8 -7 -5 -8 3 -40 13 -71 23 -32 9 -58
21 -58 26 0 6 8 7 18 3 9 -4 38 -13 64 -21z m999 -191 c13 -16 12 -17 -3 -4
-10 7 -18 15 -18 17 0 8 8 3 21 -13z m60 -55 c17 -24 18 -29 6 -19 -18 14 -42
51 -33 51 3 0 15 -15 27 -32z m214 -338 l20 -25 -22 19 c-13 11 -23 24 -23 29
0 6 1 8 3 6 1 -2 11 -15 22 -29z m115 10 c6 -11 9 -20 7 -20 -2 0 -12 9 -22
20 -10 11 -13 20 -7 20 6 0 16 -9 22 -20z m95 -180 c9 -16 13 -30 11 -30 -3 0
-12 14 -21 30 -9 17 -13 30 -11 30 3 0 12 -13 21 -30z m29 -56 c3 -8 2 -12 -4
-9 -6 3 -10 10 -10 16 0 14 7 11 14 -7z m115 -194 c0 -9 -6 -4 -14 10 -19 33
-19 49 0 24 8 -10 14 -26 14 -34z m51 -135 c0 -5 -5 -3 -10 5 -5 8 -10 20 -10
25 0 6 5 3 10 -5 5 -8 10 -19 10 -25z"/>
<path d="M3948 5923 c12 -2 30 -2 40 0 9 3 -1 5 -23 4 -22 0 -30 -2 -17 -4z"/>
<path d="M4697 5879 c7 -7 15 -10 18 -7 3 3 -2 9 -12 12 -14 6 -15 5 -6 -5z"/>
<path d="M4764 5855 c11 -8 27 -15 35 -15 9 0 3 7 -13 15 -36 19 -47 19 -22 0z"/>
<path d="M2978 5853 c7 -3 16 -2 19 1 4 3 -2 6 -13 5 -11 0 -14 -3 -6 -6z"/>
<path d="M4885 5760 c3 -5 11 -10 16 -10 18 0 224 -107 316 -164 50 -30 112
-75 139 -99 51 -46 93 -73 107 -69 5 1 6 -2 3 -6 -3 -5 21 -32 53 -60 71 -62
241 -230 241 -238 0 -4 12 -21 28 -39 15 -18 43 -53 62 -79 19 -26 45 -60 58
-76 12 -16 38 -55 57 -86 43 -70 44 -64 6 24 -39 91 -47 117 -31 107 19 -11
-16 44 -87 141 -35 46 -60 84 -56 84 3 0 28 -20 54 -45 26 -25 54 -45 62 -45
7 0 24 -11 37 -25 22 -24 47 -35 36 -16 -4 5 0 12 6 14 10 4 10 6 1 6 -7 1
-13 7 -13 14 0 8 -9 22 -20 32 -20 19 -28 41 -10 30 6 -3 10 -1 10 4 0 6 -7
11 -15 11 -8 0 -15 -4 -15 -10 0 -13 -27 -13 -35 0 -4 6 -2 16 4 23 6 8 6 18
1 27 -7 11 -11 11 -24 1 -13 -11 -16 -11 -16 3 0 13 -6 15 -25 10 -24 -6 -25
-4 -23 27 2 27 -1 34 -14 33 -10 -1 -18 3 -18 8 0 5 -9 7 -20 3 -28 -9 -44 3
-29 21 14 17 -8 51 -23 36 -6 -6 -21 -4 -39 5 -32 16 -35 23 -17 41 10 10 10
15 -2 22 -8 6 -21 8 -28 5 -16 -6 -62 12 -62 24 0 6 8 8 18 4 13 -5 11 0 -7
21 -15 15 -28 23 -34 17 -5 -5 -21 -3 -38 6 -30 15 -38 25 -16 21 6 -2 11 3 9
10 -1 6 5 12 13 12 8 0 15 5 15 10 0 13 -13 13 -28 -2 -8 -8 -15 -8 -26 1 -10
8 -16 9 -21 1 -4 -7 -11 -5 -21 4 -8 9 -21 13 -30 9 -11 -4 -8 -10 15 -24 18
-11 31 -27 31 -39 0 -26 -3 -26 -45 11 -29 26 -36 28 -41 15 -5 -13 -19 -7
-78 33 -104 71 -183 116 -289 166 -98 47 -112 52 -102 35z m623 -306 c25 -17
29 -34 8 -34 -7 0 -21 11 -30 25 -19 29 -11 32 22 9z m408 -475 c3 -6 0 -15
-7 -20 -14 -8 -32 9 -23 23 7 11 22 10 30 -3z"/>
<path d="M5668 5763 c7 -3 16 -2 19 1 4 3 -2 6 -13 5 -11 0 -14 -3 -6 -6z"/>
<path d="M4920 5715 c14 -8 30 -14 35 -14 6 0 -1 6 -15 14 -14 8 -29 14 -35
14 -5 0 1 -6 15 -14z"/>
<path d="M5480 5641 c-7 -14 -7 -22 1 -26 11 -8 40 25 33 37 -9 14 -23 9 -34
-11z"/>
<path d="M5530 5646 c0 -21 21 -31 30 -15 5 7 6 17 4 21 -9 14 -34 9 -34 -6z"/>
<path d="M5527 5593 c-12 -11 -8 -23 8 -23 8 0 15 7 15 15 0 16 -12 20 -23 8z"/>
<path d="M5604 5568 c-3 -5 -1 -15 5 -21 8 -8 15 -7 27 5 14 14 14 16 -5 21
-12 3 -24 1 -27 -5z"/>
<path d="M5565 5559 c-10 -15 3 -25 16 -12 7 7 7 13 1 17 -6 3 -14 1 -17 -5z"/>
<path d="M5154 5513 c4 -7 2 -13 -4 -13 -6 0 -8 -4 -5 -10 3 -5 10 -10 15 -10
10 0 7 27 -5 37 -4 4 -5 2 -1 -4z"/>
<path d="M5602 5509 c2 -6 8 -10 13 -10 5 0 11 4 13 10 2 6 -4 11 -13 11 -9 0
-15 -5 -13 -11z"/>
<path d="M5684 5499 c-3 -5 -2 -13 1 -19 9 -15 32 -12 38 4 6 16 -30 30 -39
15z"/>
<path d="M5690 5440 c0 -5 7 -10 15 -10 8 0 15 5 15 10 0 6 -7 10 -15 10 -8 0
-15 -4 -15 -10z"/>
<path d="M5770 5418 c0 -22 23 -23 40 -3 8 9 9 15 2 15 -6 0 -14 -5 -18 -11
-4 -8 -9 -7 -15 2 -7 11 -9 10 -9 -3z"/>
<path d="M3278 5413 c7 -3 16 -2 19 1 4 3 -2 6 -13 5 -11 0 -14 -3 -6 -6z"/>
<path d="M3230 5400 c0 -5 7 -7 15 -4 8 4 15 8 15 10 0 2 -7 4 -15 4 -8 0 -15
-4 -15 -10z"/>
<path d="M2884 5379 c-19 -22 -19 -22 3 -10 24 12 39 31 25 31 -5 0 -17 -10
-28 -21z"/>
<path d="M3170 5380 c-8 -5 -10 -10 -5 -10 6 0 17 5 25 10 8 5 11 10 5 10 -5
0 -17 -5 -25 -10z"/>
<path d="M5340 5386 c0 -2 8 -10 18 -17 15 -13 16 -12 3 4 -13 16 -21 21 -21
13z"/>
<path d="M5780 5369 c0 -5 5 -7 10 -4 6 3 10 8 10 11 0 2 -4 4 -10 4 -5 0 -10
-5 -10 -11z"/>
<path d="M3104 5354 c-19 -15 -19 -15 1 -6 11 5 27 12 35 15 13 5 13 6 -1 6
-8 1 -24 -6 -35 -15z"/>
<path d="M5885 5346 c-11 -8 -14 -15 -8 -19 6 -4 16 0 23 8 17 21 8 28 -15 11z"/>
<path d="M3580 5324 c-603 -96 -1098 -444 -1389 -977 -24 -43 -41 -80 -38 -83
2 -3 18 21 35 53 33 64 46 71 80 45 l24 -18 -52 -107 c-28 -59 -67 -151 -85
-205 -19 -53 -38 -98 -43 -100 -18 -6 -62 18 -62 34 0 22 -6 15 -13 -16 -6
-23 -3 -25 28 -26 19 0 38 -3 41 -7 4 -4 -3 -57 -16 -119 -12 -62 -25 -162
-29 -223 l-6 -110 -38 0 c-20 0 -37 -4 -37 -10 0 -5 17 -10 37 -10 l38 0 7
-115 c3 -63 16 -162 27 -219 11 -57 18 -107 16 -111 -3 -4 -18 -10 -35 -13
-16 -4 -30 -12 -30 -18 0 -6 7 -8 16 -5 58 22 61 21 79 -39 20 -69 98 -255
131 -311 13 -22 24 -44 24 -47 0 -4 -13 -13 -30 -22 -16 -9 -30 -20 -30 -26 0
-6 16 -2 35 10 l35 20 51 -77 c58 -86 151 -202 198 -246 l31 -30 -27 -28 -27
-28 -40 37 c-23 21 -5 1 39 -45 44 -45 82 -82 84 -82 3 0 -13 18 -34 41 l-40
40 28 25 29 25 59 -55 c57 -53 183 -146 261 -194 l37 -23 -17 -29 c-9 -17 -22
-30 -28 -30 -8 0 -146 89 -205 133 -8 7 -1 -1 15 -17 54 -50 207 -146 331
-206 286 -139 569 -198 895 -187 185 7 289 23 458 72 309 89 624 282 832 510
153 167 232 281 320 460 201 408 250 862 140 1291 -61 238 -130 393 -258 585
-288 430 -719 715 -1241 820 -142 29 -470 36 -611 13z m278 -46 l-3 -43 -80
-2 c-89 -3 -295 -29 -338 -43 -24 -8 -29 -6 -37 16 -20 50 -14 61 42 74 91 22
220 38 321 39 l98 1 -3 -42z m355 8 c64 -12 119 -25 122 -27 2 -3 -1 -24 -7
-47 -8 -33 -14 -42 -27 -37 -44 17 -218 46 -316 53 l-110 7 -3 28 c-7 58 -2
61 116 53 59 -3 160 -17 225 -30z m-834 -63 c6 -21 7 -40 3 -43 -4 -4 -53 -21
-108 -39 -56 -19 -146 -55 -200 -81 l-99 -48 -17 22 c-28 33 -21 52 26 79 86
48 333 145 373 147 7 0 17 -17 22 -37z m1088 -7 c106 -36 306 -127 317 -144 8
-13 -25 -72 -40 -72 -6 0 -51 20 -100 44 -88 43 -272 116 -295 116 -11 0 -5
62 7 82 7 11 0 12 111 -26z m-360 -22 c521 -76 989 -387 1262 -839 84 -139
154 -306 201 -480 23 -86 42 -257 45 -400 7 -283 -44 -517 -166 -774 -96 -201
-174 -315 -318 -464 -288 -297 -617 -468 -1028 -532 -144 -23 -454 -16 -588
13 -489 106 -878 363 -1139 750 -81 121 -168 299 -215 439 -123 367 -114 803
24 1168 177 470 561 851 1038 1029 119 44 189 63 327 86 139 24 410 26 557 4z
m-1172 -154 c21 -40 20 -42 -23 -67 -53 -30 -196 -137 -261 -195 l-55 -48 -28
27 c-15 15 -28 30 -28 35 0 22 341 278 371 278 5 0 15 -13 24 -30z m1977 -46
c80 -54 132 -95 228 -182 l45 -40 -29 -31 c-34 -35 -49 -38 -68 -13 -21 29
-162 145 -238 196 -38 26 -72 51 -75 56 -9 14 23 70 40 70 8 0 52 -25 97 -56z
m-2352 -249 l23 -24 -49 -56 c-73 -84 -118 -142 -176 -225 -28 -41 -52 -76
-53 -78 -5 -7 -65 34 -65 45 0 36 255 363 283 363 8 0 24 -11 37 -25z m2702
-57 c69 -79 174 -221 198 -268 l18 -36 -38 -22 -39 -22 -70 102 c-39 57 -97
134 -131 172 -33 38 -60 74 -60 80 0 14 41 56 55 56 6 0 36 -28 67 -62z m283
-424 c53 -105 115 -274 115 -311 0 -17 -8 -23 -41 -28 -22 -4 -41 -5 -43 -3
-1 1 -15 41 -30 88 -15 47 -50 136 -79 199 l-51 114 29 23 c17 13 35 23 40 21
6 -2 33 -48 60 -103z m147 -424 c19 -83 38 -243 38 -326 l0 -54 -44 0 -44 0
-6 98 c-6 82 -19 177 -41 304 -4 22 1 31 23 43 45 24 55 16 74 -65z m35 -507
c-7 -111 -29 -263 -48 -322 -10 -30 -14 -33 -42 -27 -49 10 -52 18 -33 108 9
46 22 143 29 216 l11 132 45 0 44 0 -6 -107z m-106 -365 c22 -6 39 -17 39 -24
0 -26 -63 -193 -110 -289 -67 -138 -61 -132 -103 -106 l-35 22 48 102 c26 56
63 148 81 204 19 56 36 102 38 103 2 0 21 -5 42 -12z m-185 -439 c19 -11 34
-24 34 -27 -1 -4 -14 -25 -30 -47 -16 -22 -45 -65 -66 -95 -45 -67 -128 -167
-163 -197 l-26 -21 -22 21 c-13 11 -23 26 -23 32 0 6 40 61 89 123 50 62 106
139 126 172 20 33 39 60 42 60 3 0 21 -9 39 -21z m-292 -377 l27 -29 -70 -66
c-39 -36 -83 -74 -98 -84 -16 -9 -46 -31 -68 -49 -22 -17 -61 -43 -87 -58
l-47 -27 -15 30 c-22 42 -21 46 22 72 63 39 215 156 257 198 21 23 42 41 45
41 4 0 19 -13 34 -28z m-381 -287 c9 -20 17 -37 17 -39 0 -2 -47 -27 -105 -55
-108 -52 -312 -128 -321 -119 -3 3 -7 21 -10 40 l-6 35 97 34 c54 18 143 57
199 85 55 29 104 53 107 53 3 1 13 -15 22 -34z m-1682 -25 c57 -27 148 -64
202 -81 l98 -33 -7 -30 c-3 -17 -9 -34 -13 -38 -16 -18 -431 154 -431 179 0
13 30 53 39 53 5 0 55 -22 112 -50z m619 -169 c63 -6 123 -11 133 -11 13 0 17
-8 17 -34 0 -19 -3 -37 -8 -40 -15 -9 -249 14 -349 35 -109 23 -119 31 -93 78
9 18 13 18 97 1 48 -10 140 -23 203 -29z m613 42 c3 -5 8 -22 11 -39 7 -29 5
-30 -41 -42 -120 -28 -384 -59 -404 -46 -5 3 -9 20 -9 39 l0 33 73 7 c119 10
229 26 287 40 67 16 78 17 83 8z"/>
<path d="M3678 5153 c-22 -5 -22 -11 -4 -32 16 -20 70 -161 69 -181 -2 -22
-70 -167 -82 -175 -25 -15 -9 -26 27 -19 46 8 48 10 32 29 -10 12 -8 25 10 70
12 30 25 55 29 55 4 0 15 -23 24 -52 15 -46 15 -54 1 -69 -13 -15 -5 -17 113
-22 71 -4 141 -10 157 -13 29 -7 29 -7 13 17 -25 35 -25 334 0 361 9 10 14 21
11 23 -12 12 -278 18 -278 7 0 -6 5 -14 10 -17 15 -9 12 -28 -11 -82 l-21 -48
-18 40 c-21 45 -25 81 -10 90 32 20 -19 32 -72 18z m217 -193 c0 -151 -2 -175
-16 -178 -17 -3 -30 21 -65 121 -25 74 -26 71 23 180 18 40 31 57 42 55 14 -3
16 -26 16 -178z m105 -4 c0 -96 -4 -177 -9 -180 -5 -4 -16 -3 -25 0 -14 5 -16
30 -16 173 0 92 3 171 7 174 3 4 15 7 25 7 17 0 18 -12 18 -174z"/>
<path d="M3063 4972 c-68 -34 -97 -61 -55 -50 16 5 21 -4 32 -59 7 -35 10 -66
7 -69 -8 -8 -75 44 -87 67 -6 10 -7 25 -4 33 9 22 0 20 -47 -11 l-41 -27 34
-18 c18 -9 61 -43 96 -75 l63 -58 6 -102 c3 -57 8 -103 10 -103 10 0 63 35 63
41 0 4 -9 9 -19 12 -14 3 -21 17 -26 50 -12 75 -6 81 43 40 35 -29 42 -40 38
-59 -6 -23 -2 -22 88 23 52 26 92 51 90 55 -3 5 -9 6 -14 3 -12 -8 -48 43
-128 183 -45 79 -68 129 -65 142 7 26 0 25 -84 -18z m39 -29 c21 -24 168 -288
168 -302 0 -26 -46 -7 -108 45 -37 31 -71 63 -75 71 -16 26 -35 177 -25 191
14 16 22 15 40 -5z"/>
<path d="M4673 4928 c10 -37 -148 -310 -183 -318 -23 -5 -21 -7 24 -33 27 -15
50 -27 52 -27 2 0 1 12 -2 28 -4 21 12 56 73 162 46 79 87 139 101 146 l23 11
-23 15 c-13 8 -34 21 -47 28 -22 11 -23 11 -18 -12z"/>
<path d="M3739 4720 c-205 -19 -408 -90 -583 -205 -274 -178 -461 -444 -543
-770 -25 -99 -27 -128 -28 -290 0 -197 10 -263 67 -425 67 -190 151 -322 300
-475 60 -61 104 -113 99 -118 -5 -5 -12 -4 -15 2 -13 20 -29 12 -23 -11 4 -15
-8 -49 -40 -108 -79 -146 -130 -220 -153 -220 -34 0 -23 -14 58 -66 151 -101
177 -111 167 -71 -5 17 11 42 76 115 45 51 83 91 85 89 2 -2 -10 -55 -28 -118
-27 -91 -37 -116 -55 -124 -13 -5 -23 -12 -23 -15 0 -3 21 -16 46 -28 46 -23
74 -21 55 2 -8 9 -5 36 10 92 54 201 77 299 72 304 -3 3 -66 -59 -142 -138
-75 -78 -142 -142 -148 -142 -26 0 -10 38 70 175 62 104 89 141 107 145 22 5
20 8 -27 38 -60 39 -78 58 -64 66 5 4 47 -18 93 -47 300 -191 667 -248 1019
-157 402 105 730 406 874 804 157 434 56 939 -255 1279 -59 63 -61 69 -46 86
32 35 11 57 -25 25 -16 -14 -24 -10 -105 50 -264 195 -580 285 -895 256z m119
-51 l3 -37 -66 -7 c-37 -4 -68 -5 -70 -3 -3 2 -6 20 -7 39 -3 33 -1 34 37 40
22 4 54 6 70 5 27 -1 30 -5 33 -37z m161 25 c2 -2 0 -19 -3 -39 -7 -33 -9 -35
-44 -34 -77 3 -97 12 -98 44 0 17 1 34 4 38 4 8 132 -1 141 -9z m-323 -29 c3
-14 4 -31 1 -39 -4 -10 -67 -26 -121 -30 -5 -1 -12 9 -17 22 -6 17 -5 22 8 22
12 0 13 3 3 15 -10 12 -6 16 22 24 18 5 48 10 65 10 27 1 34 -4 39 -24z m435
14 c41 -9 49 -13 36 -21 -21 -11 -23 -30 -3 -22 11 4 13 0 9 -15 -3 -12 -9
-24 -14 -27 -8 -5 -117 20 -126 30 -3 2 -2 18 2 35 7 35 17 37 96 20z m-609
-31 c-17 -17 -15 -33 2 -19 11 9 15 6 20 -15 4 -14 6 -27 4 -28 -2 0 -31 -11
-64 -22 l-61 -22 -16 34 c-18 37 -17 38 48 66 49 21 85 24 67 6z m791 -24 c27
-14 27 -15 11 -47 -9 -18 -17 -33 -18 -34 -3 -4 -110 38 -119 46 -4 4 -3 18 2
32 5 13 10 18 10 12 1 -7 6 -13 12 -13 6 0 8 8 4 19 -5 18 -3 19 32 9 21 -6
50 -17 66 -24z m-918 -64 c5 -23 0 -28 -50 -53 -30 -15 -57 -27 -60 -27 -10 0
-35 61 -29 71 3 6 29 22 58 35 56 26 69 21 81 -26z m656 34 c205 -35 416 -130
550 -249 l35 -32 -42 -47 c-38 -43 -45 -47 -73 -41 -33 7 -42 -4 -55 -67 -5
-20 -18 -32 -49 -46 -30 -14 -48 -30 -60 -55 -17 -35 -34 -47 -68 -47 -34 0
-97 -67 -106 -113 -8 -39 -11 -42 -50 -50 -44 -8 -83 -45 -83 -76 0 -10 -18
-25 -42 -36 -32 -15 -48 -31 -63 -62 -21 -43 -38 -53 -93 -53 -18 0 -43 -5
-55 -12 -12 -6 -36 -14 -54 -19 -32 -7 -33 -6 -31 20 3 24 0 26 -37 26 l-40 0
-6 55 c-3 34 0 64 7 80 26 54 21 102 -16 138 -25 26 -40 31 -92 35 -35 3 -74
8 -88 11 -39 10 -55 -6 -42 -42 12 -35 5 -72 -13 -72 -7 0 -15 -7 -19 -15 -6
-18 -27 -20 -43 -4 -9 9 -8 18 4 36 25 37 3 52 -43 30 -41 -20 -55 -14 -80 35
-17 32 -30 35 -56 11 -18 -17 -22 -16 -73 11 -30 15 -59 25 -64 21 -21 -12
-11 -32 29 -54 47 -26 55 -37 52 -73 -2 -23 2 -29 25 -33 52 -11 78 -30 83
-60 6 -38 42 -47 56 -14 9 20 11 19 29 -16 l20 -37 -24 -19 c-13 -10 -31 -19
-41 -19 -10 0 -23 -6 -29 -14 -15 -18 0 -52 27 -60 10 -4 27 -25 38 -49 40
-89 140 -98 203 -19 19 24 45 44 71 52 40 13 42 13 64 -15 15 -19 28 -26 39
-22 21 8 47 -28 47 -65 0 -15 11 -48 25 -74 l25 -47 -83 -106 c-550 -703 -525
-673 -545 -662 -41 22 -185 184 -241 271 -75 116 -115 211 -152 360 -48 192
-38 436 25 625 36 104 114 254 176 337 116 153 303 296 484 369 83 33 233 73
311 82 79 10 241 5 326 -9z m375 -20 c58 -28 63 -37 36 -72 l-18 -23 -57 25
c-61 27 -63 31 -45 71 14 31 17 31 84 -1z m-1182 -69 c9 -13 16 -28 16 -33 0
-13 -101 -74 -114 -69 -13 5 -42 55 -35 61 18 17 96 65 105 66 7 0 19 -11 28
-25z m1355 -33 l24 -19 -22 -32 c-14 -19 -27 -28 -34 -24 -42 27 -97 66 -97
70 0 2 7 17 15 34 l16 29 37 -20 c20 -10 48 -28 61 -38z m-1481 -64 c16 -27
15 -27 -29 -67 -48 -44 -61 -48 -78 -27 -10 11 -8 17 6 25 16 9 16 10 -4 11
-33 0 -28 14 19 55 48 41 63 41 86 3z m1560 -55 l-27 -27 -26 24 c-30 29 -30
30 -4 65 l22 27 31 -31 31 -31 -27 -27z m-1714 -38 c-4 -8 -1 -15 5 -15 6 0
11 5 11 12 0 6 8 3 20 -7 22 -20 20 -27 -34 -85 l-38 -41 -24 22 c-32 30 -30
42 12 89 37 41 58 52 48 25z m1751 -5 c-10 -11 -20 -18 -23 -15 -7 6 18 35 31
35 5 0 2 -9 -8 -20z m119 -107 c-14 -13 -29 -23 -33 -23 -14 0 -81 79 -81 94
0 20 21 31 30 16 5 -8 9 -4 14 12 6 22 8 21 51 -27 l45 -50 -26 -22z m-106 23
c110 -121 211 -309 258 -481 25 -91 28 -116 28 -285 1 -234 -19 -328 -115
-525 -171 -351 -515 -588 -922 -636 -258 -30 -563 47 -771 195 l-44 31 190
240 c104 132 245 310 313 396 l124 157 39 -11 c54 -14 122 11 160 61 23 30 27
45 27 101 l0 66 32 -3 c45 -6 76 4 111 33 45 38 79 103 95 181 13 65 15 70 48
80 19 6 35 19 37 28 2 9 14 19 28 22 31 8 54 40 54 76 0 19 8 33 26 45 15 9
34 36 44 59 15 35 26 44 62 56 42 15 48 25 34 59 -7 15 66 109 84 109 4 0 30
-24 58 -54z m-1836 -39 l28 -23 -36 -49 c-40 -57 -45 -60 -73 -45 -31 16 -25
27 12 23 17 -2 27 0 20 3 -7 3 -10 11 -7 19 4 10 0 12 -15 8 -12 -3 -21 -1
-21 4 0 12 49 83 58 83 4 -1 19 -11 34 -23z m2022 -44 l36 -57 -28 -18 c-15
-10 -31 -18 -37 -18 -5 0 -24 25 -42 55 l-32 55 26 20 c14 11 29 20 34 20 4 0
23 -26 43 -57z m-459 -73 c9 -15 -20 -57 -46 -65 -35 -11 -44 10 -20 44 22 31
54 41 66 21z m-1654 -16 c17 -8 29 -18 27 -22 -48 -107 -53 -113 -78 -107 -49
13 -52 22 -20 86 17 32 33 59 36 59 3 0 19 -7 35 -16z m2192 -49 c32 -65 33
-71 10 -78 -10 -2 -26 -8 -36 -12 -14 -6 -22 4 -44 51 l-26 57 23 19 c34 28
44 23 73 -37z m-629 -25 c43 -16 30 -80 -16 -80 -9 0 -34 -11 -54 -25 -21 -14
-44 -23 -51 -20 -9 3 -11 0 -7 -6 4 -7 1 -10 -7 -7 -18 7 -16 61 4 92 15 22
70 55 94 56 6 0 23 -4 37 -10z m-1620 -73 c18 -13 18 -16 2 -63 -23 -69 -30
-77 -55 -69 -18 6 -20 9 -10 22 11 12 10 14 -7 11 -15 -2 -18 2 -16 22 11 77
45 107 86 77z m837 3 c45 -25 65 -129 21 -113 -9 3 -25 13 -35 21 -16 14 -21
14 -53 -1 -19 -9 -46 -17 -59 -17 -22 0 -25 5 -25 34 0 67 86 110 151 76z
m1471 -46 c23 -68 23 -77 -2 -64 -14 7 -20 7 -20 0 0 -5 5 -10 10 -10 18 0 11
-18 -10 -23 -24 -6 -34 6 -50 67 -13 47 -13 50 10 68 32 26 42 19 62 -38z
m-853 -80 c35 -44 22 -105 -35 -173 -40 -48 -86 -65 -132 -50 l-36 12 30 24
c16 13 33 27 37 32 34 36 58 58 78 73 22 15 23 18 8 33 -13 13 -21 15 -37 6
-22 -12 -32 -6 -32 20 0 52 84 68 119 23z m-788 -24 c15 -12 19 -19 10 -20
-11 0 -11 -3 -1 -15 11 -13 8 -15 -19 -15 -21 0 -35 7 -47 25 -29 44 13 63 57
25z m-710 0 c12 0 11 -28 -2 -90 -9 -42 -14 -50 -33 -50 -45 0 -56 19 -44 80
13 67 14 68 34 44 14 -18 15 -18 8 5 -5 20 -3 23 11 18 9 -4 21 -7 26 -7z
m874 -19 c29 -17 42 -56 18 -56 -6 0 -15 -3 -19 -7 -14 -15 -33 -8 -69 23 -19
17 -35 40 -35 51 0 18 4 19 38 13 20 -3 51 -14 67 -24z m1478 -3 c-4 -22 -4
-22 11 -4 9 11 18 18 20 15 5 -5 27 -121 23 -125 -1 -1 -18 -4 -37 -6 l-34 -3
-14 60 c-12 54 -12 61 4 72 26 19 33 16 27 -9z m-1025 -40 c-3 -7 -11 -13 -18
-13 -7 0 -14 -7 -16 -17 -1 -9 -7 -24 -13 -35 -9 -16 -10 -15 -11 8 0 34 21
59 58 68 2 1 2 -5 0 -11z m-667 -50 c11 -11 19 -33 19 -48 0 -19 11 -37 36
-58 l36 -31 -24 -15 c-35 -23 -88 -8 -115 33 -29 42 -29 80 -2 115 25 32 27
32 50 4z m151 10 c39 -31 24 -88 -20 -74 -27 9 -75 62 -68 75 10 15 69 14 88
-1z m-844 -57 c9 -5 12 -27 10 -71 l-3 -64 -35 -1 c-26 0 -36 5 -38 18 -3 16
-1 17 17 5 29 -18 51 3 28 26 -11 11 -17 12 -19 4 -2 -6 -10 -8 -16 -4 -13 8
-17 78 -5 89 9 10 45 8 61 -2z m2450 -73 l3 -68 -34 0 c-41 0 -47 11 -47 80 0
51 8 60 50 57 24 -2 25 -6 28 -69z m-2438 -147 c5 -68 4 -70 -46 -74 -29 -2
-29 -1 -32 57 -4 78 1 88 40 84 33 -3 33 -3 38 -67z m2440 -6 c0 -71 -9 -83
-55 -71 -23 6 -25 11 -25 59 0 60 12 77 52 77 28 0 28 0 28 -65z m-2421 -142
c15 -78 14 -83 -14 -83 -19 0 -23 4 -19 18 5 15 3 14 -10 -2 -20 -24 -21 -23
-35 43 -13 62 -4 81 39 81 25 0 28 -4 39 -57z m2404 40 c6 -12 -16 -123 -25
-123 -4 0 -10 5 -13 10 -10 16 -25 11 -18 -6 5 -14 3 -15 -16 -4 -13 6 -20 17
-18 24 3 8 9 34 12 60 7 44 9 46 41 46 18 0 35 -3 37 -7z m-2364 -195 c12 -34
18 -65 13 -70 -4 -4 -21 -10 -38 -14 -29 -5 -30 -4 -47 49 -22 68 -21 70 5 61
20 -6 21 -5 10 9 -10 12 -10 16 0 20 29 12 37 4 57 -55z m2303 40 c-19 -19
-14 -30 8 -18 25 14 25 5 -1 -65 l-20 -55 -30 15 c-32 17 -34 26 -18 76 6 19
12 40 15 47 2 6 16 12 31 12 21 0 24 -3 15 -12z m-2243 -186 l30 -59 -31 -18
c-30 -17 -32 -17 -45 1 -14 19 -48 94 -46 104 0 6 45 30 55 30 4 0 21 -26 37
-58z m2214 29 c11 -11 -39 -110 -59 -118 -9 -3 -25 3 -36 15 l-21 20 24 52
c22 49 25 51 53 46 17 -4 34 -10 39 -15z m-2135 -164 l34 -52 -27 -22 c-14
-13 -29 -23 -33 -23 -8 0 -21 19 -54 78 l-20 36 24 18 c12 9 28 18 33 18 6 0
25 -24 43 -53z m2062 13 c0 -17 -64 -110 -76 -110 -6 0 -20 10 -32 23 l-22 23
36 52 35 52 29 -15 c17 -9 30 -20 30 -25z m-1969 -132 c41 -46 45 -58 27 -76
-9 -9 -14 -7 -24 6 -12 16 -13 15 -14 -5 0 -31 -5 -29 -43 13 -51 58 -53 65
-26 85 13 10 28 19 33 19 4 0 26 -19 47 -42z m1855 19 c24 -21 25 -24 10 -39
-9 -9 -16 -20 -17 -25 0 -4 -13 -18 -30 -31 -29 -23 -29 -23 -29 -3 0 23 -16
29 -23 9 -3 -10 -7 -10 -17 -1 -10 10 -5 22 26 62 21 28 41 51 45 51 5 0 20
-10 35 -23z m-1747 -130 c34 -30 40 -41 32 -56 -24 -43 -37 -44 -80 -5 -38 33
-52 56 -33 53 19 -3 26 2 13 10 -12 8 -13 12 -1 26 16 19 18 19 69 -28z m1634
6 c-19 -7 -15 -21 7 -25 16 -2 10 -11 -32 -46 l-52 -43 -18 23 c-25 33 -23 41
28 88 43 40 47 41 63 25 12 -13 13 -19 4 -22z m-106 -127 c-3 -8 -28 -29 -54
-46 l-48 -30 -18 22 c-24 29 -19 41 33 81 l45 35 24 -23 c14 -14 21 -30 18
-39z m-1398 23 c52 -33 53 -36 19 -82 -12 -16 -16 -15 -65 18 -57 38 -62 49
-36 77 21 24 23 23 82 -13z m174 -124 c-4 -48 -18 -52 -78 -22 -58 28 -64 39
-40 74 l16 22 52 -23 c46 -20 52 -26 50 -51z m1079 46 c19 -34 17 -37 -49 -70
-55 -27 -60 -27 -78 9 -17 32 -14 35 60 73 43 21 48 20 67 -12z m-1366 -35 c8
-20 -147 -293 -177 -311 -6 -4 -15 -3 -21 3 -15 15 4 56 91 200 70 115 95 140
107 108z m1219 -33 c8 -20 14 -37 13 -38 -2 -1 -31 -12 -66 -23 -62 -21 -63
-21 -57 -2 5 15 3 18 -9 14 -12 -5 -16 0 -16 18 0 19 10 27 58 44 31 12 58 22
59 23 2 0 10 -15 18 -36z m-828 10 c44 -14 53 -21 53 -40 0 -25 -10 -29 -28
-11 -7 7 -12 8 -12 2 0 -5 5 -15 12 -22 6 -6 9 -14 7 -17 -8 -7 -129 35 -129
45 0 18 24 60 33 60 6 0 34 -8 64 -17z m146 -37 c32 -6 58 -15 57 -19 0 -4 0
-20 0 -37 0 -35 -9 -36 -91 -19 l-52 11 24 20 24 20 -23 -5 c-18 -4 -22 -2
-18 10 3 8 6 19 6 24 0 11 0 11 73 -5z m527 5 c0 -5 3 -17 7 -26 5 -14 2 -16
-18 -11 l-24 7 24 -19 24 -20 -52 -11 c-87 -18 -93 -17 -89 26 3 36 5 38 53
49 65 15 75 16 75 5z m-356 -27 c46 -7 46 -7 46 -45 l0 -38 -47 5 c-80 8 -93
13 -93 33 0 51 10 56 94 45z m206 -33 l0 -39 -52 -4 c-77 -6 -88 -1 -88 38 0
35 7 38 103 42 37 2 37 2 37 -37z"/>
<path d="M3801 4676 c-9 -11 -7 -15 9 -19 22 -6 35 7 25 23 -9 14 -20 13 -34
-4z"/>
<path d="M3894 4679 c-10 -17 13 -36 27 -22 12 12 4 33 -11 33 -5 0 -12 -5
-16 -11z"/>
<path d="M3270 4536 c0 -21 21 -31 31 -15 5 8 3 17 -4 21 -18 12 -27 10 -27
-6z"/>
<path d="M4431 4541 c-7 -5 -11 -16 -9 -25 3 -15 5 -15 23 -2 22 16 10 41 -14
27z"/>
<path d="M3198 4493 c-4 -13 1 -19 14 -19 11 0 17 6 16 15 -4 22 -25 24 -30 4z"/>
<path d="M4497 4494 c-12 -12 5 -32 23 -27 11 3 16 11 13 19 -5 14 -25 19 -36
8z"/>
<path d="M3542 2758 c-16 -16 -15 -73 1 -85 6 -6 29 -13 50 -16 l37 -6 0 48
c0 53 -12 71 -50 71 -14 0 -31 -5 -38 -12z m72 -30 c13 -21 1 -36 -34 -40 -28
-3 -39 24 -19 48 15 18 38 15 53 -8z"/>
<path d="M3660 2728 c0 -50 7 -63 36 -72 33 -10 54 17 54 72 0 56 -17 46 -22
-13 -2 -32 -7 -40 -23 -40 -17 0 -20 8 -23 48 -4 58 -22 63 -22 5z"/>
<path d="M3790 2728 c-22 -48 -25 -68 -10 -68 6 0 10 5 10 10 0 17 52 11 67
-7 13 -16 14 -15 9 16 -7 42 -27 83 -44 89 -7 2 -21 -15 -32 -40z m43 -7 c3
-11 -1 -22 -8 -25 -18 -6 -24 2 -18 25 7 24 19 24 26 0z"/>
<path d="M3897 2763 c-11 -10 -8 -103 3 -103 6 0 10 9 10 20 0 28 19 25 52 -7
30 -29 37 -21 13 14 -10 14 -12 24 -5 28 16 10 12 42 -6 49 -21 8 -59 8 -67
-1z m63 -28 c0 -16 -35 -21 -44 -6 -8 12 4 21 26 21 10 0 18 -7 18 -15z"/>
<path d="M4000 2761 c0 -5 9 -11 20 -14 16 -4 20 -14 20 -46 0 -23 5 -41 10
-41 6 0 10 20 10 45 0 33 4 45 15 45 8 0 15 5 15 10 0 6 -20 10 -45 10 -25 0
-45 -4 -45 -9z"/>
<path d="M4110 2760 c0 -5 11 -10 25 -10 32 0 32 -5 -6 -48 -29 -33 -30 -36
-13 -43 28 -11 74 -10 74 1 0 6 -11 10 -25 10 -32 0 -32 17 1 51 14 15 23 32
20 38 -9 14 -76 15 -76 1z"/>
<path d="M4883 4100 c-1 -14 5 -20 18 -20 10 0 19 5 19 10 0 6 1 13 3 17 1 3
-7 7 -18 9 -15 2 -21 -3 -22 -16z"/>
<path d="M2764 4042 c-6 -4 -8 -16 -4 -26 4 -14 9 -16 14 -8 4 7 12 9 18 6 6
-4 8 1 6 11 -4 21 -18 28 -34 17z"/>
<path d="M4927 4033 c-11 -11 -8 -21 10 -27 17 -7 36 12 27 26 -6 10 -28 10
-37 1z"/>
<path d="M5071 3503 c-12 -13 -12 -16 0 -23 15 -10 45 9 32 19 -4 4 -10 9 -13
13 -3 3 -11 -1 -19 -9z"/>
<path d="M2615 3420 c-4 -6 -1 -17 5 -26 11 -12 14 -12 25 3 7 10 11 21 9 25
-7 11 -32 10 -39 -2z"/>
<path d="M5070 3420 c-13 -8 -13 -11 1 -25 13 -14 17 -14 27 -2 16 19 -7 40
-28 27z"/>
<path d="M2757 2888 c-7 -23 21 -37 34 -17 13 21 11 26 -10 32 -13 3 -21 -1
-24 -15z"/>
<path d="M4922 2880 c5 -24 38 -25 38 -1 0 14 -6 19 -20 18 -13 -1 -19 -7 -18
-17z"/>
<path d="M2813 2823 c-24 -9 -7 -43 21 -43 1 0 2 9 3 20 2 22 -6 29 -24 23z"/>
<path d="M4880 2802 c0 -15 5 -19 20 -15 24 6 21 26 -3 31 -11 2 -17 -3 -17
-16z"/>
<path d="M4490 2420 c0 -11 2 -20 4 -20 2 0 12 -3 22 -7 13 -5 16 -3 11 10 -4
10 -1 17 6 18 7 0 3 4 -8 9 -30 13 -35 12 -35 -10z"/>
<path d="M3184 2423 c3 -8 6 -17 6 -19 0 -2 9 -4 20 -4 13 0 20 7 20 19 0 13
-7 19 -26 19 -18 0 -24 -5 -20 -15z"/>
<path d="M3275 2386 c-15 -11 -17 -17 -8 -26 16 -17 42 0 34 23 -6 16 -9 16
-26 3z"/>
<path d="M4413 2378 c5 -30 37 -36 37 -8 0 13 -7 20 -20 20 -11 0 -19 -6 -17
-12z"/>
<path d="M3801 2244 c-11 -13 -11 -18 -1 -24 23 -14 41 -1 29 21 -12 22 -10
22 -28 3z"/>
<path d="M3890 2245 c-6 -8 -9 -19 -5 -25 8 -12 16 -13 34 -1 12 8 12 12 -1
25 -14 13 -18 13 -28 1z"/>
<path d="M2413 4395 c-28 -42 -28 -48 -5 -41 9 3 22 2 28 -2 15 -11 85 -105
80 -109 -2 -2 -34 1 -71 8 -52 9 -69 16 -72 30 -8 29 -21 23 -43 -21 -25 -50
-26 -64 -2 -51 13 7 52 5 123 -6 l104 -16 50 -81 c28 -44 49 -89 48 -98 -5
-32 13 -19 35 26 l21 45 -26 -2 c-21 -2 -31 7 -55 46 -17 26 -28 51 -25 54 4
3 32 1 64 -3 46 -7 58 -13 57 -27 -3 -31 21 -18 49 29 28 46 28 47 5 41 -12
-4 -66 -1 -120 5 l-96 11 -58 80 c-32 45 -57 89 -57 99 2 27 -10 21 -34 -17z"/>
<path d="M5270 4362 c0 -12 -26 -34 -77 -64 -164 -97 -212 -120 -235 -112 -22
6 -22 6 -5 -19 9 -15 33 -56 53 -92 35 -63 37 -65 48 -44 16 33 274 181 304
174 32 -8 28 9 -24 98 -44 76 -64 94 -64 59z m58 -84 c4 -19 -27 -40 -188
-130 -92 -51 -106 -56 -119 -43 -13 13 -12 17 3 34 14 16 126 85 241 150 27
15 59 10 63 -11z"/>
<path d="M2137 3613 c-8 -7 -9 -73 -2 -73 3 0 14 5 24 12 15 9 30 7 77 -12
l58 -24 -50 -17 c-56 -20 -94 -24 -94 -9 0 6 -4 10 -10 10 -13 0 -14 -197 -1
-204 5 -3 14 1 21 9 19 22 368 22 376 0 4 -8 11 -15 16 -15 10 0 2 169 -8 179
-2 2 -11 -2 -19 -9 -13 -11 -24 -9 -65 10 -28 13 -50 26 -50 30 0 3 26 14 57
23 51 16 58 16 65 2 15 -27 28 -6 28 46 0 43 -13 66 -22 39 -3 -10 -180 -80
-203 -80 -20 0 -157 59 -175 75 -9 8 -20 12 -23 8z m326 -173 c48 -23 67 -37
67 -51 0 -18 -10 -19 -185 -19 -160 0 -186 2 -192 16 -9 24 15 40 102 68 94
30 118 28 208 -14z"/>
<path d="M5164 3445 c-1 -143 1 -154 16 -140 12 11 52 15 179 17 146 2 165 0
176 -16 8 -11 16 -13 20 -7 7 13 8 291 1 299 -3 3 -14 -3 -25 -12 -17 -15 -39
-17 -182 -14 -119 2 -163 6 -167 16 -12 37 -17 -4 -18 -143z m364 76 c8 -5 12
-17 10 -27 -3 -17 -16 -19 -153 -22 -83 -1 -160 0 -172 3 -27 6 -31 41 -5 48
32 8 307 7 320 -2z m0 -100 c8 -5 12 -17 10 -27 -3 -18 -15 -19 -173 -19 -167
0 -170 0 -173 22 -2 14 3 23 15 26 33 8 308 7 321 -2z"/>
<path d="M2596 3022 c-12 -36 -303 -197 -337 -187 -18 6 -20 4 -14 -17 11 -34
91 -194 132 -260 35 -60 53 -72 53 -39 0 10 8 22 18 26 46 20 217 73 221 69 5
-4 -104 -105 -153 -142 -17 -13 -37 -20 -48 -16 -26 8 -22 -6 14 -50 l31 -38
11 25 c6 14 71 80 144 147 72 67 132 126 132 131 0 16 -21 11 -192 -46 -167
-55 -202 -63 -213 -46 -7 12 24 33 176 119 87 48 133 69 148 65 12 -3 21 -3
21 0 0 2 -20 42 -44 88 -25 46 -52 104 -62 129 -22 57 -30 67 -38 42z m31 -88
c8 -22 -6 -33 -155 -118 -139 -80 -176 -92 -170 -55 2 16 42 44 148 105 80 45
151 83 158 83 7 1 15 -6 19 -15z m43 -89 c6 -8 9 -18 6 -23 -3 -5 -47 -33 -98
-62 -51 -29 -119 -69 -151 -88 -54 -33 -59 -34 -75 -19 -15 16 -15 18 0 33 15
16 286 172 299 173 4 1 12 -6 19 -14z"/>
<path d="M5033 2882 c-23 -48 -67 -124 -97 -170 -55 -82 -56 -83 -29 -78 23 5
54 -9 163 -71 83 -48 139 -87 145 -100 5 -13 13 -23 16 -23 19 0 189 296 189
330 0 6 -10 8 -25 4 -20 -5 -47 7 -123 51 -155 93 -174 106 -179 126 -3 10 -8
19 -12 18 -3 0 -25 -39 -48 -87z m183 -78 c136 -77 160 -96 149 -114 -11 -18
-30 -11 -151 61 -130 77 -154 95 -154 116 0 23 19 15 156 -63z m-46 -82 c126
-71 150 -88 150 -109 0 -25 -34 -13 -143 50 -125 71 -173 109 -163 125 9 15
22 9 156 -66z m-50 -80 c121 -68 163 -99 154 -113 -12 -19 -46 -6 -165 65
-128 76 -155 98 -145 115 9 14 24 7 156 -67z"/>
<path d="M4508 2325 c-6 -7 0 -40 45 -229 27 -112 33 -154 26 -168 -16 -29 -5
-32 40 -8 46 23 52 37 19 42 -20 3 -26 17 -51 113 -15 61 -26 118 -25 127 2
14 20 2 75 -48 89 -80 120 -121 104 -137 -14 -14 -14 -27 0 -27 15 0 99 59 99
70 0 6 -11 10 -25 10 -17 0 -54 28 -127 97 -167 157 -174 164 -180 158z"/>
<path d="M3690 2153 c0 -2 7 -15 16 -29 24 -36 15 -342 -10 -356 -35 -20 -12
-28 79 -28 57 0 95 4 95 10 0 6 -4 10 -10 10 -5 0 -10 12 -10 28 0 32 41 224
47 218 7 -6 53 -199 53 -219 0 -10 -7 -20 -15 -23 -31 -12 -13 -24 34 -24 53
0 73 14 47 33 -8 7 -24 50 -34 97 -43 192 -66 280 -73 280 -4 0 -19 -53 -34
-117 -53 -230 -61 -256 -78 -267 -36 -23 -37 -9 -28 327 1 28 5 37 18 37 10 0
13 3 8 9 -10 9 -105 22 -105 14z"/>
<path d="M3005 5310 c-3 -5 -2 -10 4 -10 5 0 13 5 16 10 3 6 2 10 -4 10 -5 0
-13 -4 -16 -10z"/>
<path d="M5430 5312 c0 -4 10 -13 23 -21 22 -14 22 -14 3 8 -20 22 -26 25 -26
13z"/>
<path d="M5865 5300 c-3 -5 -1 -10 4 -10 6 0 11 5 11 10 0 6 -2 10 -4 10 -3 0
-8 -4 -11 -10z"/>
<path d="M5936 5284 c-5 -14 -4 -15 9 -4 17 14 19 20 6 20 -5 0 -12 -7 -15
-16z"/>
<path d="M5965 5270 c-3 -5 -2 -10 4 -10 5 0 13 5 16 10 3 6 2 10 -4 10 -5 0
-13 -4 -16 -10z"/>
<path d="M5950 5231 c0 -5 7 -11 14 -14 10 -4 13 -1 9 9 -6 15 -23 19 -23 5z"/>
<path d="M6035 5218 c-10 -25 3 -42 21 -27 15 13 20 34 5 25 -5 -4 -11 0 -14
6 -3 9 -7 8 -12 -4z"/>
<path d="M6001 5194 c0 -11 3 -14 6 -6 3 7 2 16 -1 19 -3 4 -6 -2 -5 -13z"/>
<path d="M6035 5161 c-6 -11 9 -23 19 -14 9 9 7 23 -3 23 -6 0 -12 -4 -16 -9z"/>
<path d="M6127 5154 c-12 -12 4 -24 31 -24 26 1 26 1 8 15 -22 17 -30 18 -39
9z"/>
<path d="M5976 5141 c-4 -7 -5 -15 -2 -18 9 -9 19 4 14 18 -4 11 -6 11 -12 0z"/>
<path d="M6085 5130 c-9 -14 15 -34 104 -88 37 -22 58 -29 65 -22 5 5 8 11 5
13 -2 2 -38 23 -79 47 -41 25 -78 48 -81 53 -4 5 -10 3 -14 -3z"/>
<path d="M6359 5100 c-31 -25 -12 -26 21 0 14 11 20 20 14 20 -7 0 -22 -9 -35
-20z"/>
<path d="M6010 5053 c0 -10 17 -29 38 -43 57 -38 58 -37 17 14 -42 49 -55 56
-55 29z"/>
<path d="M5696 5047 c3 -10 9 -15 12 -12 3 3 0 11 -7 18 -10 9 -11 8 -5 -6z"/>
<path d="M6245 4984 c-37 -40 -41 -64 -15 -72 13 -4 13 -3 2 11 -11 13 -10 17
6 26 22 12 56 60 48 68 -3 3 -22 -11 -41 -33z"/>
<path d="M5330 4922 c0 -5 7 -15 15 -22 8 -7 15 -8 15 -2 0 5 -7 15 -15 22 -8
7 -15 8 -15 2z"/>
<path d="M6560 4902 c0 -10 21 -32 32 -32 16 0 8 19 -12 30 -11 6 -20 7 -20 2z"/>
<path d="M2379 4873 c-13 -16 -12 -17 4 -4 16 13 21 21 13 21 -2 0 -10 -8 -17
-17z"/>
<path d="M5390 4865 c1 -12 39 -59 44 -54 2 2 -7 18 -20 34 -13 17 -24 26 -24
20z"/>
<path d="M6430 4845 c13 -14 26 -25 28 -25 3 0 -5 11 -18 25 -13 14 -26 25
-28 25 -3 0 5 -11 18 -25z"/>
<path d="M6452 4788 c-13 -13 12 -37 41 -38 21 0 22 14 1 34 -18 19 -26 20
-42 4z"/>
<path d="M6658 4784 c-26 -8 -50 -19 -53 -24 -8 -13 -2 -13 42 5 21 8 65 19
98 24 l60 9 -50 0 c-27 0 -71 -6 -97 -14z"/>
<path d="M6405 4771 c-3 -5 -1 -12 5 -16 5 -3 10 1 10 9 0 18 -6 21 -15 7z"/>
<path d="M6490 4695 c0 -19 11 -19 36 0 18 14 18 14 -8 15 -18 0 -28 -5 -28
-15z"/>
<path d="M6550 4700 c0 -5 10 -10 23 -10 18 0 19 2 7 10 -19 13 -30 13 -30 0z"/>
<path d="M6690 4701 c35 -20 60 -23 60 -7 0 12 -10 16 -37 16 -26 -1 -33 -3
-23 -9z"/>
<path d="M5596 4677 c3 -10 9 -15 12 -12 3 3 0 11 -7 18 -10 9 -11 8 -5 -6z"/>
<path d="M6450 4653 c0 -4 5 -15 10 -23 8 -13 10 -13 10 2 0 9 -4 20 -10 23
-5 3 -10 3 -10 -2z"/>
<path d="M6480 4631 c0 -12 5 -21 10 -21 6 0 10 6 10 14 0 8 -4 18 -10 21 -5
3 -10 -3 -10 -14z"/>
<path d="M5680 4540 c6 -11 13 -20 16 -20 2 0 0 9 -6 20 -6 11 -13 20 -16 20
-2 0 0 -9 6 -20z"/>
<path d="M7090 4548 c0 -4 5 -19 10 -34 34 -87 -7 -296 -62 -322 -34 -16 -35
-22 -3 -52 29 -27 42 -22 25 10 -10 18 -8 26 9 44 11 12 30 49 42 81 25 72 23
201 -4 250 -9 17 -16 27 -17 23z"/>
<path d="M6406 4479 c-18 -59 -21 -145 -6 -154 6 -4 10 11 10 37 0 24 4 70 10
102 12 76 6 83 -14 15z"/>
<path d="M6162 4456 c12 -25 23 -44 25 -42 5 5 -26 74 -37 81 -6 4 0 -14 12
-39z"/>
<path d="M5716 4477 c3 -10 9 -15 12 -12 3 3 0 11 -7 18 -10 9 -11 8 -5 -6z"/>
<path d="M6362 4455 c0 -16 2 -22 5 -12 2 9 2 23 0 30 -3 6 -5 -1 -5 -18z"/>
<path d="M6351 4394 c0 -11 3 -14 6 -6 3 7 2 16 -1 19 -3 4 -6 -2 -5 -13z"/>
<path d="M2066 4383 c-6 -14 -5 -15 5 -6 7 7 10 15 7 18 -3 3 -9 -2 -12 -12z"/>
<path d="M5810 4280 c90 -230 160 -529 160 -683 0 -29 6 -49 16 -58 15 -13 16
-8 10 56 -14 134 -48 311 -83 425 -37 124 -99 289 -115 305 -5 6 0 -15 12 -45z"/>
<path d="M6221 4327 c-1 -4 13 -45 31 -90 17 -45 37 -107 44 -137 8 -37 12
-46 13 -27 1 39 -85 288 -88 254z"/>
<path d="M6370 4325 c0 -5 5 -17 10 -25 5 -8 10 -10 10 -5 0 6 -5 17 -10 25
-5 8 -10 11 -10 5z"/>
<path d="M2121 4201 c-29 -69 -26 -78 5 -12 13 30 23 56 20 58 -2 2 -13 -19
-25 -46z"/>
<path d="M1911 4073 c-36 -117 -65 -246 -82 -363 -6 -47 -17 -89 -23 -93 -8
-6 -7 -10 2 -14 15 -6 16 -53 1 -53 -18 0 -5 -491 13 -505 13 -9 39 -79 43
-115 6 -50 19 -108 27 -124 6 -10 10 -35 10 -54 0 -36 0 -36 14 -12 12 24 13
23 7 -13 -7 -43 14 -120 30 -110 6 4 8 0 4 -11 -4 -10 9 -48 33 -96 22 -44 40
-86 40 -94 0 -8 11 -28 26 -45 14 -16 25 -33 24 -36 -1 -7 30 -51 56 -79 12
-12 23 -27 25 -33 8 -24 181 -203 195 -203 9 0 12 -4 9 -10 -3 -5 0 -7 9 -4 9
3 20 -3 28 -15 7 -12 19 -21 26 -21 8 0 0 14 -17 31 -17 17 -31 36 -31 43 0 7
-9 22 -20 34 -12 12 -18 22 -15 22 3 0 -29 44 -71 97 -41 53 -101 139 -132
189 -38 62 -60 89 -65 81 -6 -8 -7 -6 -3 5 3 9 -17 63 -44 120 -94 199 -180
502 -180 631 0 49 -16 72 -23 35 -3 -13 -3 6 -1 42 2 36 6 137 9 225 7 227 27
354 86 544 16 52 27 96 25 98 -3 3 -18 -39 -35 -94z m19 -1265 c0 -5 -4 -8
-10 -8 -5 0 -10 10 -10 23 0 18 2 19 10 7 5 -8 10 -18 10 -22z m60 -163 c0 -5
-5 -3 -10 5 -5 8 -10 20 -10 25 0 6 5 3 10 -5 5 -8 10 -19 10 -25z m34 -71 c3
-8 2 -12 -4 -9 -6 3 -10 10 -10 16 0 14 7 11 14 -7z m77 -141 c13 -16 12 -17
-3 -4 -10 7 -18 15 -18 17 0 8 8 3 21 -13z"/>
<path d="M6460 4140 c11 -16 26 -33 32 -36 7 -4 -1 9 -16 29 -34 44 -46 50
-16 7z"/>
<path d="M6416 4152 c-3 -5 3 -17 14 -27 17 -15 20 -16 20 -3 0 19 -26 42 -34
30z"/>
<path d="M2076 4084 c-9 -26 -16 -52 -15 -58 0 -6 9 13 20 43 10 30 17 56 15
58 -2 2 -11 -17 -20 -43z"/>
<path d="M6972 4099 c-18 -12 -31 -24 -28 -26 9 -9 46 9 56 28 13 24 13 24
-28 -2z"/>
<path d="M6716 4085 c-4 -16 -2 -33 5 -41 17 -21 57 -17 64 6 8 24 -9 58 -20
41 -5 -9 -12 -8 -25 4 -16 15 -18 14 -24 -10z"/>
<path d="M6836 4092 c-3 -6 3 -21 14 -33 19 -24 19 -24 20 -3 0 24 -25 50 -34
36z"/>
<path d="M6520 4086 c0 -2 8 -10 18 -17 15 -13 16 -12 3 4 -13 16 -21 21 -21
13z"/>
<path d="M6310 4009 c0 -14 7 -34 15 -45 18 -24 18 -19 0 31 -12 33 -14 36
-15 14z"/>
<path d="M6860 4009 c0 -9 9 -24 20 -34 26 -23 26 -4 0 26 -15 18 -19 20 -20
8z"/>
<path d="M6620 3975 c7 -8 17 -12 22 -9 6 4 5 10 -3 15 -22 14 -33 10 -19 -6z"/>
<path d="M6748 3963 c7 -3 16 -2 19 1 4 3 -2 6 -13 5 -11 0 -14 -3 -6 -6z"/>
<path d="M6640 3939 c0 -5 5 -7 10 -4 6 3 10 8 10 11 0 2 -4 4 -10 4 -5 0 -10
-5 -10 -11z"/>
<path d="M6061 3914 c0 -11 3 -14 6 -6 3 7 2 16 -1 19 -3 4 -6 -2 -5 -13z"/>
<path d="M6940 3877 c24 -26 46 -47 48 -47 11 0 -29 47 -59 69 -30 22 -29 20
11 -22z"/>
<path d="M5881 3874 c0 -11 3 -14 6 -6 3 7 2 16 -1 19 -3 4 -6 -2 -5 -13z"/>
<path d="M6607 3863 c-11 -10 -8 -154 3 -195 11 -39 51 -78 80 -78 13 0 10 8
-16 36 -19 20 -31 40 -28 45 3 6 -2 19 -11 29 -15 16 -17 31 -12 82 6 60 -1
96 -16 81z"/>
<path d="M6372 3810 c0 -14 2 -19 5 -12 2 6 2 18 0 25 -3 6 -5 1 -5 -13z"/>
<path d="M6570 3742 c0 -39 5 -74 10 -77 7 -4 8 18 4 67 -9 95 -14 99 -14 10z"/>
<path d="M2001 3784 c0 -11 3 -14 6 -6 3 7 2 16 -1 19 -3 4 -6 -2 -5 -13z"/>
<path d="M6378 3724 c2 -19 -1 -41 -8 -49 -8 -9 -8 -20 -2 -31 5 -10 6 -29 2
-45 -5 -17 -3 -44 5 -71 12 -41 13 -36 14 89 1 72 -2 134 -7 137 -4 2 -6 -11
-4 -30z"/>
<path d="M6944 3720 c3 -19 11 -39 18 -45 8 -7 9 -6 3 4 -4 8 -2 17 6 22 11 6
9 13 -10 30 l-24 23 7 -34z"/>
<path d="M1992 3720 c0 -14 2 -19 5 -12 2 6 2 18 0 25 -3 6 -5 1 -5 -13z"/>
<path d="M5912 3680 c0 -19 2 -27 5 -17 2 9 2 25 0 35 -3 9 -5 1 -5 -18z"/>
<path d="M6850 3681 c0 -5 7 -12 16 -15 14 -5 15 -4 4 9 -14 17 -20 19 -20 6z"/>
<path d="M6915 3650 c-7 -11 18 -24 35 -18 6 2 1 9 -9 15 -13 8 -22 9 -26 3z"/>
<path d="M6710 3643 c0 -6 9 -22 21 -37 11 -14 18 -26 14 -26 -3 0 4 -10 15
-22 26 -28 85 -35 75 -9 -4 9 -11 28 -17 43 -7 19 -19 28 -46 33 -20 4 -43 11
-49 17 -8 7 -13 7 -13 1z"/>
<path d="M6103 3585 c0 -27 2 -38 4 -22 2 15 2 37 0 50 -2 12 -4 0 -4 -28z"/>
<path d="M6890 3622 c0 -15 38 -44 51 -40 9 3 6 11 -9 26 -22 22 -42 29 -42
14z"/>
<path d="M5912 3555 c-1 -29 2 -56 7 -59 8 -6 9 100 0 108 -3 3 -6 -19 -7 -49z"/>
<path d="M6673 3555 c15 -14 36 -25 45 -25 12 0 9 7 -13 25 -40 33 -69 33 -32
0z"/>
<path d="M6920 3552 c0 -12 23 -32 37 -32 11 0 11 4 1 20 -13 20 -38 28 -38
12z"/>
<path d="M5981 3378 c-1 -127 -8 -208 -32 -361 -13 -82 -7 -98 9 -25 29 131
54 518 34 518 -7 0 -11 -48 -11 -132z"/>
<path d="M6718 3503 c7 -3 16 -2 19 1 4 3 -2 6 -13 5 -11 0 -14 -3 -6 -6z"/>
<path d="M6966 3482 c5 -4 27 -21 49 -36 l40 -27 -39 35 c-22 20 -44 36 -50
36 -6 0 -6 -3 0 -8z"/>
<path d="M5923 3435 c0 -27 2 -38 4 -22 2 15 2 37 0 50 -2 12 -4 0 -4 -28z"/>
<path d="M6665 3470 c4 -6 11 -8 16 -5 14 9 11 15 -7 15 -8 0 -12 -5 -9 -10z"/>
<path d="M6626 3435 c4 -22 8 -77 9 -122 3 -53 10 -93 21 -115 23 -43 29 -20
15 58 -6 32 -11 91 -11 131 0 52 -3 72 -11 67 -6 -3 -15 0 -20 7 -5 9 -6 -2
-3 -26z"/>
<path d="M6393 3375 c0 -38 2 -53 4 -32 2 20 2 52 0 70 -2 17 -4 1 -4 -38z"/>
<path d="M6613 3330 c0 -36 2 -50 4 -32 2 17 2 47 0 65 -2 17 -4 3 -4 -33z"/>
<path d="M5912 3330 c0 -19 2 -27 5 -17 2 9 2 25 0 35 -3 9 -5 1 -5 -18z"/>
<path d="M7017 3340 c7 -25 23 -37 23 -17 0 8 -6 20 -14 26 -12 10 -13 8 -9
-9z"/>
<path d="M1633 3310 c0 -25 2 -35 4 -22 2 12 2 32 0 45 -2 12 -4 2 -4 -23z"/>
<path d="M6381 3274 c0 -11 3 -14 6 -6 3 7 2 16 -1 19 -3 4 -6 -2 -5 -13z"/>
<path d="M6361 3193 c-14 -69 -14 -80 -2 -67 10 10 27 124 19 124 -3 0 -10
-26 -17 -57z"/>
<path d="M6092 3220 c0 -14 2 -19 5 -12 2 6 2 18 0 25 -3 6 -5 1 -5 -13z"/>
<path d="M1641 3214 c0 -11 3 -14 6 -6 3 7 2 16 -1 19 -3 4 -6 -2 -5 -13z"/>
<path d="M7033 3180 c-15 -34 -17 -47 -8 -43 15 5 39 67 33 82 -2 5 -13 -13
-25 -39z"/>
<path d="M6900 3180 c20 -13 33 -13 25 0 -3 6 -14 10 -23 10 -15 0 -15 -2 -2
-10z"/>
<path d="M6660 3145 c0 -15 34 -55 46 -55 18 0 18 5 -2 35 -14 22 -44 35 -44
20z"/>
<path d="M6840 3136 c0 -8 -7 -17 -16 -20 -9 -4 -14 -13 -10 -21 3 -8 1 -15
-5 -15 -6 0 -7 -5 -4 -11 4 -6 14 -8 22 -5 8 3 11 1 8 -4 -3 -6 2 -10 12 -10
11 0 25 -6 32 -12 14 -14 15 -18 -8 65 -13 44 -31 64 -31 33z"/>
<path d="M6940 3131 c0 -18 37 -54 49 -47 9 6 9 11 0 22 -17 21 -49 37 -49 25z"/>
<path d="M6777 3109 c7 -7 15 -10 18 -7 3 3 -2 9 -12 12 -14 6 -15 5 -6 -5z"/>
<path d="M1661 3084 c0 -11 3 -14 6 -6 3 7 2 16 -1 19 -3 4 -6 -2 -5 -13z"/>
<path d="M6966 3055 c6 -16 43 -40 50 -33 2 2 -3 14 -12 26 -17 25 -47 30 -38
7z"/>
<path d="M7010 3001 c0 -5 21 -26 48 -46 44 -36 38 -27 -23 30 -14 13 -25 20
-25 16z"/>
<path d="M1681 2984 c0 -11 3 -14 6 -6 3 7 2 16 -1 19 -3 4 -6 -2 -5 -13z"/>
<path d="M6721 2963 c0 -25 1 -26 9 -8 12 27 12 35 0 35 -5 0 -10 -12 -9 -27z"/>
<path d="M1831 2944 c0 -11 3 -14 6 -6 3 7 2 16 -1 19 -3 4 -6 -2 -5 -13z"/>
<path d="M5916 2868 c-26 -101 -28 -116 -8 -63 19 51 36 125 29 125 -3 0 -12
-28 -21 -62z"/>
<path d="M6025 2900 c-4 -17 -5 -34 -2 -36 2 -3 7 10 11 27 8 42 0 50 -9 9z"/>
<path d="M6697 2913 c-5 -12 -7 -63 -5 -112 2 -74 6 -91 21 -101 26 -16 31 -6
17 32 -7 18 -16 71 -19 118 -4 59 -9 78 -14 63z"/>
<path d="M1701 2904 c0 -11 3 -14 6 -6 3 7 2 16 -1 19 -3 4 -6 -2 -5 -13z"/>
<path d="M7060 2850 c0 -25 16 -44 25 -30 4 7 0 19 -9 28 -13 14 -16 14 -16 2z"/>
<path d="M6292 2823 c-6 -16 -13 -39 -17 -53 l-6 -25 14 25 c15 26 30 80 23
80 -2 0 -8 -12 -14 -27z"/>
<path d="M1746 2760 c3 -14 11 -32 16 -40 6 -10 7 -7 2 10 -3 14 -11 32 -16
40 -6 10 -7 7 -2 -10z"/>
<path d="M5745 2634 c-15 -38 -33 -75 -38 -82 -5 -7 -7 -15 -4 -18 7 -8 80
143 75 157 -2 7 -17 -19 -33 -57z"/>
<path d="M6710 2662 c0 -4 14 -21 30 -37 31 -30 38 -28 20 5 -11 21 -50 46
-50 32z"/>
<path d="M6985 2660 c3 -5 11 -10 16 -10 6 0 7 5 4 10 -3 6 -11 10 -16 10 -6
0 -7 -4 -4 -10z"/>
<path d="M6890 2639 c0 -19 -4 -21 -37 -16 l-38 6 25 -19 c14 -10 21 -22 18
-26 -10 -9 22 -33 45 -34 21 0 23 32 3 49 -7 6 -11 22 -8 36 2 14 2 25 -2 25
-3 0 -6 -10 -6 -21z"/>
<path d="M1790 2645 c0 -5 5 -17 10 -25 5 -8 10 -10 10 -5 0 6 -5 17 -10 25
-5 8 -10 11 -10 5z"/>
<path d="M6695 2600 c10 -11 20 -20 23 -20 3 0 -3 9 -13 20 -10 11 -20 20 -23
20 -3 0 3 -9 13 -20z"/>
<path d="M6994 2604 c3 -9 6 -18 6 -20 0 -2 7 -4 15 -4 18 0 19 12 3 28 -17
17 -31 15 -24 -4z"/>
<path d="M1810 2598 c0 -11 59 -138 64 -138 3 0 -8 30 -25 67 -29 65 -39 83
-39 71z"/>
<path d="M6777 2569 c7 -7 15 -10 18 -7 3 3 -2 9 -12 12 -14 6 -15 5 -6 -5z"/>
<path d="M7010 2552 c0 -12 39 -46 45 -41 6 7 -24 49 -36 49 -5 0 -9 -4 -9 -8z"/>
<path d="M6952 2528 c2 -6 10 -14 16 -16 7 -2 10 2 6 12 -7 18 -28 22 -22 4z"/>
<path d="M5906 2515 c-9 -26 -7 -32 5 -12 6 10 9 21 6 23 -2 3 -7 -2 -11 -11z"/>
<path d="M5686 2503 c-6 -14 -5 -15 5 -6 7 7 10 15 7 18 -3 3 -9 -2 -12 -12z"/>
<path d="M6187 2513 c-14 -23 -37 -86 -28 -78 12 12 43 85 37 85 -3 0 -7 -3
-9 -7z"/>
<path d="M6775 2490 c3 -5 10 -10 16 -10 5 0 9 5 9 10 0 6 -7 10 -16 10 -8 0
-12 -4 -9 -10z"/>
<path d="M6888 2483 c7 -3 16 -2 19 1 4 3 -2 6 -13 5 -11 0 -14 -3 -6 -6z"/>
<path d="M5721 2414 c-37 -53 -37 -68 0 -21 23 29 43 67 36 67 -2 0 -18 -21
-36 -46z"/>
<path d="M1909 2393 c16 -32 55 -98 86 -148 32 -49 58 -95 58 -102 0 -7 4 -11
7 -10 4 1 28 -25 54 -57 70 -90 208 -237 278 -296 37 -32 16 -7 -53 61 -170
168 -301 339 -413 542 -46 82 -57 89 -17 10z"/>
<path d="M6747 2443 c-4 -3 -7 -47 -7 -98 0 -57 -4 -95 -12 -103 -9 -9 -7 -12
9 -12 12 0 23 -6 26 -12 2 -7 4 42 3 109 -1 116 -4 132 -19 116z"/>
<path d="M7115 2431 c11 -13 28 -27 39 -33 29 -16 11 7 -27 33 l-32 23 20 -23z"/>
<path d="M5621 2416 c-8 -9 -8 -16 -2 -20 6 -4 15 3 21 14 12 23 -2 27 -19 6z"/>
<path d="M5770 2412 c0 -5 -11 -14 -25 -20 -14 -6 -25 -17 -25 -23 0 -8 7 -6
18 4 10 10 22 14 25 11 4 -4 9 1 13 10 3 9 10 14 14 11 5 -3 11 -1 15 5 3 5
-3 10 -14 10 -12 0 -21 -4 -21 -8z"/>
<path d="M2330 2356 c0 -2 8 -10 18 -17 15 -13 16 -12 3 4 -13 16 -21 21 -21
13z"/>
<path d="M5619 2293 c-96 -101 -233 -233 -238 -228 -2 3 2 11 10 18 8 6 21 21
28 32 8 11 -3 3 -23 -17 -20 -21 -36 -35 -36 -31 0 10 -29 -30 -30 -41 0 -5 9
-1 20 9 11 10 20 13 20 7 0 -7 -4 -12 -9 -12 -11 0 -55 -69 -49 -75 2 -3 24
16 48 40 24 25 48 45 53 45 19 0 78 55 134 123 88 108 145 187 134 187 -5 0
-33 -26 -62 -57z"/>
<path d="M5780 2307 c-13 -23 -46 -76 -74 -117 -64 -94 -68 -100 -62 -100 14
0 173 247 164 255 -2 3 -15 -14 -28 -38z"/>
<path d="M7100 2337 c0 -19 16 -31 24 -18 3 5 -1 14 -9 21 -12 10 -15 10 -15
-3z"/>
<path d="M5541 2278 c-22 -29 -44 -57 -49 -63 -31 -40 -54 -78 -39 -66 15 12
113 137 131 169 17 29 -5 8 -43 -40z"/>
<path d="M2389 2282 c17 -22 38 -45 48 -53 10 -8 -2 10 -26 39 -51 60 -68 71
-22 14z"/>
<path d="M7122 2190 c-21 -38 -40 -49 -56 -33 -11 11 -36 12 -36 1 0 -6 6 -8
14 -5 8 3 22 -3 31 -13 14 -15 21 -17 41 -8 13 6 21 14 19 19 -3 4 0 9 6 11 6
2 9 18 7 36 l-3 32 -23 -40z"/>
<path d="M6025 2194 c-9 -14 -15 -27 -13 -30 2 -2 12 10 22 26 21 37 15 40 -9
4z"/>
<path d="M6970 2192 c0 -4 9 -8 20 -9 11 -1 18 2 15 8 -7 11 -35 12 -35 1z"/>
<path d="M5985 2179 c-4 -6 -5 -12 -2 -15 2 -3 7 2 10 11 7 17 1 20 -8 4z"/>
<path d="M6711 2161 c6 -17 18 -36 26 -43 11 -9 10 -1 -6 30 -25 49 -35 55
-20 13z"/>
<path d="M6760 2178 c1 -18 39 -62 47 -54 8 8 -21 59 -36 64 -6 2 -11 -2 -11
-10z"/>
<path d="M6926 2164 c-3 -9 -3 -21 0 -26 5 -7 -5 -9 -26 -6 -33 5 -33 5 -12
-13 28 -22 28 -28 0 -22 -23 5 -23 5 -3 -10 11 -8 30 -17 43 -21 17 -6 22 -3
22 10 0 12 10 6 35 -22 19 -21 34 -34 35 -28 0 6 -19 30 -43 53 -36 35 -43 47
-39 72 5 31 -2 39 -12 13z"/>
<path d="M7020 2123 c1 -18 30 -44 40 -38 8 5 6 13 -6 26 -17 19 -34 25 -34
12z"/>
<path d="M1817 2087 c81 -132 263 -336 418 -470 33 -29 -3 11 -81 88 -163 162
-207 211 -281 318 -30 42 -57 77 -59 77 -3 0 -1 -6 3 -13z"/>
<path d="M5546 1980 c-78 -89 -193 -200 -326 -313 -35 -30 -31 -28 20 9 96 70
425 404 398 404 -2 0 -43 -45 -92 -100z"/>
<path d="M7052 2040 c12 -16 28 -30 36 -30 12 0 11 5 -4 23 -39 46 -66 52 -32
7z"/>
<path d="M2640 2025 c13 -14 26 -25 28 -25 3 0 -5 11 -18 25 -13 14 -26 25
-28 25 -3 0 5 -11 18 -25z"/>
<path d="M6955 2040 c3 -5 8 -10 11 -10 2 0 4 5 4 10 0 6 -5 10 -11 10 -5 0
-7 -4 -4 -10z"/>
<path d="M7035 2020 c3 -5 8 -10 11 -10 2 0 4 5 4 10 0 6 -5 10 -11 10 -5 0
-7 -4 -4 -10z"/>
<path d="M5304 2005 c-4 -8 -11 -12 -17 -8 -6 3 -7 1 -3 -5 4 -8 -3 -16 -19
-22 -14 -5 -28 -17 -31 -25 -4 -8 -11 -15 -16 -15 -5 0 -28 -15 -51 -34 -209
-169 -610 -364 -762 -371 -64 -3 -206 -35 -200 -45 8 -12 -57 -19 -250 -26
-140 -5 -209 -3 -310 10 -176 23 -355 66 -460 111 -71 30 -126 47 -132 41 -3
-3 -1 -6 5 -6 6 0 44 -16 83 -35 40 -19 81 -35 91 -35 10 0 18 -5 18 -11 0
-11 -28 -9 -62 6 -13 5 -18 3 -18 -8 0 -18 -30 -32 -30 -14 0 13 -72 67 -89
67 -6 0 -11 3 -11 8 0 4 -12 12 -25 19 -20 9 -31 9 -51 -2 l-26 -13 20 -20 21
-21 -22 -3 c-12 -2 -23 -12 -25 -23 -3 -16 -1 -18 9 -7 7 6 22 12 32 12 17 0
18 -2 6 -16 -11 -14 -10 -19 10 -35 13 -11 31 -19 40 -19 9 -1 33 -7 54 -14
29 -11 37 -11 37 -1 0 7 -16 16 -36 19 -28 6 -34 11 -29 24 5 14 4 15 -6 5
-18 -18 -32 -16 -25 2 4 13 2 14 -14 5 -20 -11 -25 -4 -12 16 7 13 35 17 90
15 18 -1 31 -5 28 -10 -3 -5 -16 -7 -29 -3 -20 5 -21 4 -8 -11 7 -9 19 -17 26
-17 7 0 30 -17 50 -37 37 -37 37 -38 31 -10 -7 28 -1 33 23 18 9 -6 10 -11 2
-15 -18 -12 -13 -23 17 -34 28 -11 93 -13 406 -13 99 1 181 -1 183 -3 2 -2
-20 -11 -49 -21 -41 -14 -80 -18 -176 -16 -76 1 -137 -3 -160 -10 l-37 -12 37
-13 c20 -7 62 -16 93 -19 47 -6 59 -12 68 -32 6 -13 22 -30 36 -38 l26 -13
-35 -15 -35 -15 28 -11 c41 -16 660 -15 655 1 -2 6 -18 16 -36 22 -42 15 -42
28 2 43 19 7 52 23 73 37 21 14 60 30 86 37 58 14 56 31 -4 42 -55 9 -184 25
-224 28 -72 5 88 16 183 13 58 -2 102 1 102 6 0 5 -8 7 -17 3 -15 -5 -14 -3 2
10 13 10 22 12 26 5 5 -7 19 -6 45 3 22 7 73 12 118 10 53 -2 76 1 71 8 -3 6
-1 11 4 11 6 0 11 6 11 14 0 18 -25 38 -34 28 -4 -4 -11 -7 -14 -7 -4 -1 -17
-6 -29 -13 -14 -8 -24 -9 -28 -2 -8 13 10 30 69 65 40 23 52 26 67 17 26 -16
27 -16 21 14 -3 19 -9 23 -21 18 -61 -26 -114 -44 -117 -41 -2 2 6 9 19 15 12
5 54 26 92 44 39 19 102 53 142 76 76 44 83 47 83 33 0 -5 -20 -19 -45 -31
-25 -12 -45 -25 -45 -30 0 -4 -12 -11 -27 -16 -20 -5 -23 -8 -11 -11 23 -6
113 42 168 88 25 21 59 43 75 50 18 6 25 13 17 16 -7 3 -36 -11 -64 -31 -29
-20 -54 -33 -57 -29 -3 3 0 8 8 11 7 2 22 13 33 24 10 10 37 28 59 40 23 11
43 27 46 34 3 8 11 14 19 14 8 0 14 5 14 10 0 6 6 10 14 10 7 0 19 7 26 15 7
8 17 15 22 15 5 0 -11 -19 -36 -43 -26 -24 -44 -46 -40 -49 10 -10 95 74 90
88 -3 7 20 34 50 60 29 26 54 51 54 55 0 15 -20 10 -26 -6z m-924 -495 c-8 -5
-24 -9 -35 -9 -16 1 -16 2 5 9 35 11 48 11 30 0z m125 0 c-27 -12 -43 -12 -25
0 8 5 22 9 30 9 10 0 8 -3 -5 -9z m-1158 -16 c-3 -3 -12 -4 -19 -1 -8 3 -5 6
6 6 11 1 17 -2 13 -5z m970 0 c-3 -3 -12 -4 -19 -1 -8 3 -5 6 6 6 11 1 17 -2
13 -5z m128 -4 c-11 -5 -29 -8 -40 -8 -16 0 -15 2 5 8 34 11 60 11 35 0z
m-182 -7 c-7 -2 -19 -2 -25 0 -7 3 -2 5 12 5 14 0 19 -2 13 -5z m289 -15 c-7
-7 -12 -8 -12 -2 0 14 12 26 19 19 2 -3 -1 -11 -7 -17z m-62 -21 c0 -18 -2
-19 -10 -7 -13 20 -13 43 0 35 6 -3 10 -16 10 -28z m30 12 c0 -11 -4 -17 -10
-14 -5 3 -10 13 -10 21 0 8 5 14 10 14 6 0 10 -9 10 -21z m-1202 -6 c32 -8 27
-23 -7 -19 -33 4 -51 13 -51 28 0 6 7 7 18 3 9 -4 27 -10 40 -12z m159 11 c-3
-3 -12 -4 -19 -1 -8 3 -5 6 6 6 11 1 17 -2 13 -5z m70 -14 c7 0 10 -7 7 -15
-5 -12 -10 -13 -20 -4 -7 6 -19 7 -25 3 -8 -4 -9 -3 -5 4 4 7 2 12 -3 12 -6 0
-11 -4 -11 -10 0 -5 -5 -10 -11 -10 -8 0 -7 5 2 16 7 9 21 13 33 10 12 -3 26
-6 33 -6z m883 -4 c0 -3 -4 -8 -10 -11 -5 -3 -10 -1 -10 4 0 6 5 11 10 11 6 0
10 -2 10 -4z m-657 -23 c-7 -2 -21 -2 -30 0 -10 3 -4 5 12 5 17 0 24 -2 18 -5z"/>
<path d="M5894 1993 c-30 -41 -39 -62 -15 -33 23 27 44 60 38 60 -2 0 -12 -12
-23 -27z"/>
<path d="M6825 2000 c3 -5 11 -10 16 -10 6 0 7 5 4 10 -3 6 -11 10 -16 10 -6
0 -7 -4 -4 -10z"/>
<path d="M6950 1985 c0 -8 4 -15 8 -15 5 0 9 7 9 15 0 8 -4 15 -9 15 -4 0 -8
-7 -8 -15z"/>
<path d="M7080 1982 c13 -9 38 -28 55 -42 16 -14 39 -32 50 -40 19 -14 19 -14
5 4 -18 23 -116 96 -127 95 -4 0 3 -8 17 -17z"/>
<path d="M2458 1953 c16 -28 39 -46 46 -34 4 5 -8 19 -25 32 -29 20 -31 21
-21 2z"/>
<path d="M6800 1934 c-21 -55 -6 -234 19 -234 4 0 4 30 -1 68 -8 64 -4 164 8
183 3 5 0 9 -6 9 -6 0 -15 -12 -20 -26z"/>
<path d="M2535 1842 c33 -34 65 -62 71 -62 6 0 17 -7 24 -15 7 -8 19 -15 26
-15 22 0 16 28 -7 35 -20 7 -20 7 -2 28 12 13 13 17 3 12 -22 -14 -73 -6 -87
13 -7 9 -13 12 -13 6 0 -5 -6 -2 -13 6 -7 8 -24 24 -37 35 -14 10 2 -9 35 -43z
m80 -42 c3 -5 2 -10 -4 -10 -5 0 -13 5 -16 10 -3 6 -2 10 4 10 5 0 13 -4 16
-10z"/>
<path d="M4975 1870 c-3 -6 1 -7 9 -4 18 7 21 14 7 14 -6 0 -13 -4 -16 -10z"/>
<path d="M7139 1823 c24 -49 26 -50 28 -24 1 10 -10 29 -24 42 l-25 24 21 -42z"/>
<path d="M4888 1814 c-38 -20 -36 -28 2 -9 17 9 30 18 30 20 0 7 -1 6 -32 -11z"/>
<path d="M5103 1774 c-11 -36 -11 -36 9 -16 14 14 18 25 11 35 -6 13 -11 9
-20 -19z"/>
<path d="M4815 1770 c-3 -6 1 -7 9 -4 18 7 21 14 7 14 -6 0 -13 -4 -16 -10z"/>
<path d="M5349 1743 l-24 -28 28 24 c15 14 27 26 27 28 0 8 -8 1 -31 -24z"/>
<path d="M2130 1756 c0 -2 7 -9 15 -16 9 -7 15 -8 15 -2 0 5 -7 12 -15 16 -8
3 -15 4 -15 2z"/>
<path d="M2690 1735 c7 -9 15 -13 17 -11 7 7 -7 26 -19 26 -6 0 -6 -6 2 -15z"/>
<path d="M4725 1725 c-27 -13 -53 -25 -56 -25 -15 0 -81 -32 -77 -36 5 -4 64
19 153 61 28 13 46 24 40 24 -5 1 -32 -10 -60 -24z"/>
<path d="M6748 1703 c6 -35 30 -73 46 -73 7 0 8 3 0 8 -5 4 -16 23 -24 42 -18
47 -29 58 -22 23z"/>
<path d="M2470 1716 c0 -2 8 -10 18 -17 15 -13 16 -12 3 4 -13 16 -21 21 -21
13z"/>
<path d="M2730 1712 c0 -16 25 -32 51 -32 15 0 32 -7 39 -15 7 -8 17 -15 22
-15 14 0 -27 40 -57 56 -30 16 -55 18 -55 6z"/>
<path d="M7020 1711 c0 -10 30 -24 37 -17 3 2 -5 9 -16 16 -12 6 -21 7 -21 1z"/>
<path d="M7162 1696 c-6 -15 -19 -29 -27 -32 -18 -7 -10 -24 11 -24 8 0 14 8
14 18 0 10 5 23 11 29 6 6 9 17 7 23 -2 7 -9 0 -16 -14z"/>
<path d="M4991 1688 c-43 -20 -100 -74 -113 -109 -4 -11 -12 -19 -17 -19 -6 0
-7 7 -4 17 7 18 1 15 -52 -21 -16 -12 -32 -22 -35 -22 -35 -10 -50 -19 -50
-30 0 -21 18 -17 31 8 l12 22 8 -22 c11 -28 33 -28 56 1 10 12 36 35 58 51 22
17 49 39 60 50 11 12 40 38 65 58 50 42 46 46 -19 16z m-155 -145 c-10 -10
-19 5 -10 18 6 11 8 11 12 0 2 -7 1 -15 -2 -18z"/>
<path d="M2930 1680 c19 -11 40 -19 45 -19 6 0 -6 8 -25 19 -19 11 -39 19 -45
19 -5 0 6 -8 25 -19z"/>
<path d="M6810 1672 c0 -4 7 -18 16 -30 21 -30 38 -17 18 14 -16 23 -34 32
-34 16z"/>
<path d="M2910 1650 c0 -5 5 -10 11 -10 5 0 7 5 4 10 -3 6 -8 10 -11 10 -2 0
-4 -4 -4 -10z"/>
<path d="M4520 1646 c-57 -22 -139 -44 -230 -61 -120 -23 -160 -36 -85 -28 33
4 77 7 97 7 22 0 33 3 25 8 -8 5 -3 8 12 8 14 0 38 4 55 10 96 31 186 63 186
66 0 7 -25 3 -60 -10z"/>
<path d="M6974 1644 c5 -13 1 -15 -23 -12 l-30 4 24 -22 c14 -13 25 -28 25
-34 0 -5 5 -10 10 -10 6 0 10 8 10 17 0 12 11 6 41 -22 l41 -40 -43 67 c-41
63 -69 90 -55 52z"/>
<path d="M2819 1637 c16 -20 37 -22 47 -5 4 7 3 8 -4 4 -6 -4 -22 -1 -34 5
-21 11 -22 11 -9 -4z"/>
<path d="M5200 1625 c-19 -14 -30 -25 -25 -25 6 0 24 11 40 25 39 31 30 31
-15 0z"/>
<path d="M2940 1630 c0 -5 7 -10 16 -10 8 0 12 5 9 10 -3 6 -10 10 -16 10 -5
0 -9 -4 -9 -10z"/>
<path d="M2815 1605 c17 -13 34 -24 39 -25 6 0 -5 11 -24 25 -44 32 -54 32
-15 0z"/>
<path d="M7060 1621 c0 -12 29 -35 36 -28 11 10 -5 37 -21 37 -8 0 -15 -4 -15
-9z"/>
<path d="M2876 1605 c4 -8 10 -15 15 -15 5 0 9 7 9 15 0 8 -7 15 -15 15 -9 0
-12 -6 -9 -15z"/>
<path d="M4815 1610 c3 -5 8 -10 11 -10 2 0 4 5 4 10 0 6 -5 10 -11 10 -5 0
-7 -4 -4 -10z"/>
<path d="M5462 1584 c-18 -14 -40 -27 -50 -29 -9 -1 -16 -8 -15 -14 2 -6 -7
-16 -19 -22 -18 -10 -20 -9 -15 5 4 10 -13 0 -37 -21 -24 -21 -42 -40 -40 -42
2 -3 10 1 16 7 7 7 19 12 28 12 12 0 127 84 165 121 18 18 -1 8 -33 -17z
m-107 -84 c-3 -5 -11 -10 -16 -10 -6 0 -7 5 -4 10 3 6 11 10 16 10 6 0 7 -4 4
-10z"/>
<path d="M2910 1590 c0 -5 5 -10 11 -10 5 0 7 5 4 10 -3 6 -8 10 -11 10 -2 0
-4 -4 -4 -10z"/>
<path d="M3358 1593 c7 -3 16 -2 19 1 4 3 -2 6 -13 5 -11 0 -14 -3 -6 -6z"/>
<path d="M4788 1593 c7 -3 16 -2 19 1 4 3 -2 6 -13 5 -11 0 -14 -3 -6 -6z"/>
<path d="M3447 1569 c6 -6 42 -13 80 -15 77 -4 53 9 -36 19 -39 5 -51 3 -44
-4z"/>
<path d="M2680 1566 c0 -3 9 -10 20 -16 11 -6 20 -8 20 -6 0 3 -9 10 -20 16
-11 6 -20 8 -20 6z"/>
<path d="M7096 1545 c16 -25 34 -33 34 -17 0 10 -33 42 -44 42 -3 0 1 -11 10
-25z"/>
<path d="M2319 1546 c17 -21 107 -84 98 -68 -4 5 -31 27 -60 48 -28 20 -46 29
-38 20z"/>
<path d="M3645 1550 c-25 -6 -27 -8 -12 -15 9 -4 29 -5 42 -2 14 2 28 0 31 -4
3 -5 22 -9 42 -8 l37 1 -42 11 c-23 7 -45 15 -49 20 -4 4 -10 6 -13 6 -3 -1
-19 -5 -36 -9z"/>
<path d="M4945 1499 c-60 -32 -132 -68 -160 -78 -35 -14 -43 -20 -26 -20 24
-1 236 104 281 139 36 28 27 24 -95 -41z"/>
<path d="M4083 1543 c9 -2 23 -2 30 0 6 3 -1 5 -18 5 -16 0 -22 -2 -12 -5z"/>
<path d="M3838 1533 c23 -2 59 -2 80 0 20 2 1 4 -43 4 -44 0 -61 -2 -37 -4z"/>
<path d="M3978 1533 c7 -3 16 -2 19 1 4 3 -2 6 -13 5 -11 0 -14 -3 -6 -6z"/>
<path d="M2750 1526 c0 -3 9 -10 20 -16 11 -6 20 -8 20 -6 0 3 -9 10 -20 16
-11 6 -20 8 -20 6z"/>
<path d="M7083 1524 c3 -6 34 -32 68 -59 35 -27 60 -44 56 -37 -5 6 -35 33
-69 59 -34 26 -59 42 -55 37z"/>
<path d="M2800 1495 c0 -7 121 -67 126 -63 2 2 -26 18 -61 36 -36 17 -65 30
-65 27z"/>
<path d="M6835 1408 c-15 -53 -13 -152 5 -163 7 -4 20 205 14 213 -1 2 -10
-20 -19 -50z"/>
<path d="M3004 1435 c11 -8 27 -15 35 -15 10 1 7 6 -9 15 -33 19 -50 18 -26 0z"/>
<path d="M4716 1435 c-47 -17 -69 -35 -41 -35 18 0 105 38 105 46 0 7 -24 3
-64 -11z"/>
<path d="M2967 1409 c7 -7 15 -10 18 -7 3 3 -2 9 -12 12 -14 6 -15 5 -6 -5z"/>
<path d="M3085 1400 c3 -5 13 -10 21 -10 8 0 12 5 9 10 -3 6 -13 10 -21 10 -8
0 -12 -4 -9 -10z"/>
<path d="M5500 1333 c0 -3 12 -22 26 -42 48 -65 75 -76 94 -40 9 16 8 26 -3
43 -18 27 -117 61 -117 39z"/>
<path d="M6782 1275 c-1 -27 4 -59 11 -71 18 -31 54 -74 62 -74 9 0 -27 62
-43 75 -8 6 -17 36 -22 65 l-8 55 0 -50z"/>
<path d="M7190 1308 c0 -9 5 -20 11 -23 17 -11 20 0 4 21 -13 17 -14 17 -15 2z"/>
<path d="M6840 1205 c0 -16 31 -63 56 -85 20 -17 24 -19 14 -5 -9 11 -23 37
-33 58 -9 20 -21 37 -27 37 -5 0 -10 -2 -10 -5z"/>
<path d="M7017 1203 c-4 -3 -7 -14 -7 -24 0 -11 -10 -20 -29 -24 -29 -6 -29
-7 -10 -26 10 -10 21 -18 23 -16 7 4 56 -53 57 -66 0 -7 4 -2 9 10 7 17 4 32
-12 59 l-21 36 21 -6 c12 -4 22 -6 22 -4 0 12 -48 67 -53 61z"/>
<path d="M7150 1180 c-9 -6 -10 -10 -3 -10 6 0 15 5 18 10 8 12 4 12 -15 0z"/>
<path d="M7122 1148 c6 -17 36 -34 45 -24 4 4 -1 14 -11 22 -24 17 -39 18 -34
2z"/>
<path d="M7156 1085 c16 -25 34 -33 34 -17 0 10 -33 42 -44 42 -3 0 1 -11 10
-25z"/>
<path d="M7140 1065 c13 -14 26 -25 28 -25 3 0 -5 11 -18 25 -13 14 -26 25
-28 25 -3 0 5 -11 18 -25z"/>
<path d="M6530 989 c0 -5 5 -7 10 -4 6 3 10 8 10 11 0 2 -4 4 -10 4 -5 0 -10
-5 -10 -11z"/>
<path d="M7255 984 c36 -28 61 -36 30 -10 -16 14 -34 25 -40 25 -5 0 -1 -7 10
-15z"/>
<path d="M6896 927 c-10 -69 -3 -135 20 -178 20 -40 29 -30 14 16 -7 20 -15
78 -19 128 l-7 92 -8 -58z"/>
<path d="M7252 884 c7 -15 14 -21 16 -15 5 16 -5 41 -17 41 -7 0 -6 -10 1 -26z"/>
<path d="M7288 753 c-8 -36 -35 -83 -48 -83 -5 0 -12 9 -15 21 -4 11 -9 18
-12 15 -7 -6 17 -66 26 -66 3 0 11 8 16 19 6 10 18 33 28 50 10 18 17 42 15
54 -3 18 -5 15 -10 -10z"/>
<path d="M7130 746 c0 -12 41 -56 52 -56 4 0 0 13 -8 29 -16 31 -44 49 -44 27z"/>
<path d="M6896 710 c7 -39 33 -81 55 -88 9 -3 7 3 -6 18 l-20 23 33 -17 c17
-9 32 -13 32 -9 -1 12 -48 63 -58 63 -5 0 -17 10 -25 23 -16 22 -16 21 -11
-13z"/>
<path d="M7071 708 c0 -9 -7 -21 -15 -25 -35 -20 -14 -83 28 -83 19 0 21 5 18
45 -2 25 -8 45 -12 45 -5 0 -11 8 -13 18 -4 15 -5 15 -6 0z"/>
<path d="M7164 646 c-7 -20 2 -46 16 -46 13 0 13 47 0 55 -6 3 -13 -1 -16 -9z"/>
<path d="M7265 650 c-3 -5 -1 -10 4 -10 6 0 11 5 11 10 0 6 -2 10 -4 10 -3 0
-8 -4 -11 -10z"/>
<path d="M7157 558 c4 -7 8 -20 9 -28 1 -8 2 -22 3 -31 1 -17 81 -79 102 -79
7 0 24 -10 38 -22 l26 -23 -19 23 c-11 12 -39 32 -64 44 -43 22 -82 60 -82 81
0 6 9 2 21 -9 20 -18 20 -18 13 11 -9 41 -12 45 -35 45 -14 0 -18 -4 -12 -12z"/>
<path d="M6960 550 c0 -5 5 -10 11 -10 5 0 7 5 4 10 -3 6 -8 10 -11 10 -2 0
-4 -4 -4 -10z"/>
<path d="M6950 514 c0 -8 5 -12 10 -9 6 3 10 10 10 16 0 5 -4 9 -10 9 -5 0
-10 -7 -10 -16z"/>
<path d="M7150 463 c0 -4 5 -15 10 -23 8 -13 10 -13 10 2 0 9 -4 20 -10 23 -5
3 -10 3 -10 -2z"/>
<path d="M6912 398 c-9 -45 -7 -102 6 -124 4 -7 7 28 8 77 0 49 -1 89 -2 89
-2 0 -7 -19 -12 -42z"/>
<path d="M6870 287 c0 -13 9 -32 21 -43 13 -12 18 -26 15 -40 -6 -22 15 -39
41 -35 6 1 14 -3 18 -9 3 -5 11 -10 16 -10 15 0 -4 30 -50 79 -23 24 -41 49
-41 57 0 7 -4 16 -10 19 -6 3 -10 -4 -10 -18z m70 -107 c0 -5 -2 -10 -4 -10
-3 0 -8 5 -11 10 -3 6 -1 10 4 10 6 0 11 -4 11 -10z"/>
<path d="M7237 262 c5 -44 3 -52 -11 -52 -9 0 -16 5 -16 10 0 6 -8 10 -17 10
-9 0 -31 13 -48 30 -23 22 -34 27 -45 19 -13 -9 -12 -10 3 -5 9 3 17 1 17 -5
0 -6 11 -20 24 -30 27 -21 43 -104 19 -95 -21 8 -15 -3 19 -40 40 -42 54 -44
33 -4 -22 43 -20 80 5 80 11 0 19 -5 18 -11 -2 -6 8 -18 21 -27 24 -16 24 -16
19 6 -4 15 -2 22 8 22 25 0 16 40 -12 50 -20 8 -25 15 -21 33 3 12 -1 31 -8
41 -13 17 -14 13 -8 -32z"/>
<path d="M7004 242 c-3 -15 -7 -33 -10 -40 -2 -7 5 -18 16 -24 11 -7 20 -18
20 -25 0 -12 60 -46 68 -39 8 9 -10 106 -19 101 -4 -3 -15 5 -24 19 -24 37
-44 40 -51 8z"/>
<path d="M6997 60 c7 -8 39 -15 75 -16 l63 -3 -62 9 c-35 5 -69 12 -75 16 -10
5 -10 4 -1 -6z"/>
</g>
</svg>
